<svg width="25" height="20" viewBox="0 0 25 20" fill="none" xmlns="http://www.w3.org/2000/svg">
    <path d="M5.76788 4.03753C5.63288 4.19953 5.50388 4.36053 5.37988 4.53753C7.42196 6.77578 9.66133 8.82571 12.0709 10.6625C13.9749 12.1483 15.9798 13.5002 18.0709 14.7085C18.3889 14.8865 18.7009 15.0585 19.0029 15.2145C19.1379 15.0525 19.2669 14.8915 19.3909 14.7145C19.9944 13.8439 20.4205 12.8629 20.6449 11.8275C20.6879 11.6555 20.7259 11.4825 20.7579 11.3155C21.055 9.75493 20.917 8.14267 20.359 6.65527C19.801 5.16786 18.8445 3.86265 17.5943 2.88254C16.344 1.90242 14.8482 1.28518 13.2706 1.09839C11.693 0.911602 10.0944 1.16247 8.64988 1.82353C7.53284 2.33192 6.547 3.08926 5.76788 4.03753Z" fill="#646E7B"/>
    <path d="M20.9872 13.5085C20.87 13.8294 20.7365 14.1442 20.5872 14.4515C21.2525 15.2174 21.8292 16.0561 22.3062 16.9515C22.4352 17.1725 22.7062 17.6575 22.3542 17.6195C22.2528 17.6022 22.1527 17.5788 22.0542 17.5495C20.4638 17.0651 18.9386 16.3884 17.5122 15.5345C15.3869 14.3058 13.3487 12.9322 11.4122 11.4235C8.86629 9.48822 6.51064 7.31472 4.37715 4.9325C3.6624 4.13001 3.01897 3.26675 2.45415 2.3525C2.33972 2.17394 2.23941 1.9867 2.15415 1.7925C2.01915 1.4585 2.42315 1.5175 2.53115 1.5445C3.63428 1.81153 4.69082 2.24339 5.66515 2.8255C5.89215 2.59465 6.14325 2.3888 6.41415 2.2115C5.31966 1.4424 4.14105 0.800593 2.90115 0.298502C1.65715 -0.175498 0.687154 -0.067498 0.342154 0.498502C-0.314846 1.5705 1.09615 4.3985 3.86015 7.6095C3.44848 9.24446 3.52312 10.9641 4.07492 12.5572C4.62672 14.1503 5.63167 15.5477 6.96641 16.5778C8.30116 17.6079 9.90761 18.2258 11.5886 18.3558C13.2696 18.4858 14.9519 18.1221 16.4292 17.3095C18.1089 18.0923 19.856 18.7215 21.6492 19.1895C22.9372 19.5185 23.8262 19.4895 24.1702 18.9255C24.7692 17.9425 23.5192 16.1325 20.9872 13.5085Z" fill="#646E7B"/>
</svg>
