<svg width="17" height="20" viewBox="0 0 17 20" fill="none" xmlns="http://www.w3.org/2000/svg">
    <path d="M16.5936 1.964C16.5941 1.4452 16.3891 0.947304 16.0235 0.57924C15.6579 0.211176 15.1613 0.00290839 14.6426 0H6.78655L0.893555 5.893V17.678C0.895137 18.1984 1.10257 18.697 1.47055 19.065C1.83852 19.433 2.33716 19.6404 2.85755 19.642H14.6526C15.1719 19.6399 15.6692 19.432 16.0354 19.0638C16.4017 18.6957 16.6071 18.1973 16.6066 17.678L16.5936 1.964ZM5.80355 16.7H3.83955V14.731H5.80355V16.7ZM13.6606 16.7H11.6936V14.731H13.6576L13.6606 16.7ZM5.80355 12.767H3.83955V8.839H5.80355V12.767ZM9.73255 16.7H7.76855V12.767H9.73255V16.7ZM9.73255 10.807H7.76855V8.839H9.73255V10.807ZM13.6606 12.771H11.6936V8.839H13.6576L13.6606 12.771Z" fill="#FFCC00"/>
</svg>
