<svg width="24" height="25" viewBox="0 0 24 25" fill="none" xmlns="http://www.w3.org/2000/svg">
    <g clip-path="url(#clip0_1064_31272)">
        <path d="M1.71436 3.07541C1.71436 2.60202 2.09811 2.21826 2.57151 2.21826C3.0449 2.21826 3.42866 2.60202 3.42866 3.07541V4.78967C3.42866 5.26306 3.0449 5.64682 2.57151 5.64682C2.09811 5.64682 1.71436 5.26306 1.71436 4.78967V3.07541Z" fill="#245073"/>
        <path d="M11.1431 3.07542C11.1431 2.60202 11.5268 2.21826 12.0002 2.21826C12.4736 2.21826 12.8574 2.60202 12.8574 3.07542V11.6468C12.8574 12.1202 12.4736 12.504 12.0002 12.504C11.5268 12.504 11.1431 12.1202 11.1431 11.6468V3.07542Z" fill="#245073"/>
        <path d="M20.5713 3.07541C20.5713 2.60202 20.955 2.21826 21.4284 2.21826C21.9018 2.21826 22.2856 2.60202 22.2856 3.07541V8.21829C22.2856 8.69168 21.9018 9.07543 21.4284 9.07543C20.955 9.07543 20.5713 8.69168 20.5713 8.21829V3.07541Z" fill="#245073"/>
        <path d="M23.9998 11.6467C23.9998 11.1733 23.6161 10.7896 23.1427 10.7896H19.7141C19.2407 10.7896 18.8569 11.1733 18.8569 11.6467C18.8569 12.1201 19.2407 12.5039 19.7141 12.5039H20.5712V21.9324C20.5712 22.4058 20.955 22.7896 21.4284 22.7896C21.9018 22.7896 22.2855 22.4058 22.2855 21.9324V12.5038H23.1427C23.6161 12.5038 23.9998 12.12 23.9998 11.6467Z" fill="#245073"/>
        <path d="M9.42871 15.0754C9.42871 15.5488 9.81247 15.9326 10.2859 15.9326H11.143V21.9326C11.143 22.406 11.5268 22.7897 12.0002 22.7897C12.4736 22.7897 12.8573 22.406 12.8573 21.9326V15.9326H13.7145C14.1879 15.9326 14.5716 15.5488 14.5716 15.0754C14.5716 14.602 14.1879 14.2183 13.7145 14.2183H10.2859C9.81247 14.2183 9.42871 14.602 9.42871 15.0754Z" fill="#245073"/>
        <path d="M0 8.21799C0 8.69138 0.38376 9.07514 0.857153 9.07514H1.7143V21.9323C1.7143 22.4057 2.09806 22.7894 2.57146 22.7894C3.04485 22.7894 3.42861 22.4057 3.42861 21.9323V9.07514H4.28576C4.75915 9.07514 5.14291 8.69138 5.14291 8.21799C5.14291 7.7446 4.75915 7.36084 4.28576 7.36084H0.857152C0.38376 7.36084 0 7.7446 0 8.21799Z" fill="#245073"/>
    </g>
    <defs>
        <clipPath id="clip0_1064_31272">
            <rect width="24" height="24" fill="white" transform="translate(0 0.503906)"/>
        </clipPath>
    </defs>
</svg>
