<svg width="24" height="24" viewBox="0 0 24 24" fill="none" xmlns="http://www.w3.org/2000/svg">
    <path fill-rule="evenodd" clip-rule="evenodd" d="M18.6667 4H20.3334C21.2539 4 22.0001 4.89543 22.0001 6V18C22.0001 19.1046 21.2539 20 20.3334 20H18.6667C17.7462 20 17 19.1046 17 18V6C17 4.89543 17.7462 4 18.6667 4Z" fill="#245073"/>
    <path fill-rule="evenodd" clip-rule="evenodd" d="M11.1667 7.99951H12.8334C13.7539 7.99951 14.5001 8.89494 14.5001 9.99951V17.9995C14.5001 19.1041 13.7539 19.9995 12.8334 19.9995H11.1667C10.2462 19.9995 9.5 19.1041 9.5 17.9995V9.99951C9.5 8.89494 10.2462 7.99951 11.1667 7.99951Z" fill="#245073"/>
    <path fill-rule="evenodd" clip-rule="evenodd" d="M3.66669 10.9995H5.33338C6.25386 10.9995 7.00006 11.8949 7.00006 12.9995V17.9995C7.00006 19.1041 6.25386 19.9995 5.33338 19.9995H3.66669C2.7462 19.9995 2 19.1041 2 17.9995V12.9995C2 11.8949 2.7462 10.9995 3.66669 10.9995Z" fill="#245073"/>
</svg>
