<svg width="25" height="25" viewBox="0 0 25 25" fill="none" xmlns="http://www.w3.org/2000/svg">
    <path d="M21.8587 1.79004H15.3227C15.1197 1.78991 14.9249 1.87008 14.7807 2.01304L1.71273 15.081C1.42639 15.3685 1.26563 15.7578 1.26562 16.1635C1.26563 16.5693 1.42639 16.9585 1.71273 17.246L7.93573 23.469C8.22323 23.7554 8.61246 23.9161 9.01823 23.9161C9.42399 23.9161 9.81323 23.7554 10.1007 23.469L23.1617 10.406C23.3047 10.2619 23.3849 10.0671 23.3847 9.86404V3.32204C23.3858 3.12107 23.3471 2.92187 23.2708 2.73591C23.1946 2.54996 23.0823 2.38092 22.9405 2.23852C22.7987 2.09613 22.6301 1.9832 22.4444 1.90623C22.2587 1.82926 22.0597 1.78977 21.8587 1.79004ZM19.3217 7.73604C18.9718 7.77433 18.6186 7.70304 18.3109 7.53202C18.0032 7.361 17.7562 7.09868 17.604 6.78127C17.4518 6.46386 17.4018 6.10702 17.4611 5.76002C17.5203 5.41302 17.6858 5.09296 17.9347 4.84405C18.1836 4.59513 18.5037 4.42962 18.8507 4.37038C19.1977 4.31113 19.5545 4.36107 19.872 4.5133C20.1894 4.66553 20.4517 4.91253 20.6227 5.22022C20.7937 5.52791 20.865 5.8811 20.8267 6.23104C20.7846 6.61574 20.6125 6.97456 20.3389 7.24821C20.0652 7.52186 19.7064 7.69395 19.3217 7.73604Z" stroke="#240073" stroke-width="2"/>
</svg>
