<svg width="24" height="25" viewBox="0 0 24 25" fill="none" xmlns="http://www.w3.org/2000/svg">
    <g clip-path="url(#clip0_1064_31274)">
        <path d="M15.5 14.5039H14.71L14.43 14.2339C15.41 13.0939 16 11.6139 16 10.0039C16 6.41391 13.09 3.50391 9.5 3.50391C5.91 3.50391 3 6.41391 3 10.0039C3 13.5939 5.91 16.5039 9.5 16.5039C11.11 16.5039 12.59 15.9139 13.73 14.9339L14 15.2139V16.0039L19 20.9939L20.49 19.5039L15.5 14.5039ZM9.5 14.5039C7.01 14.5039 5 12.4939 5 10.0039C5 7.51391 7.01 5.50391 9.5 5.50391C11.99 5.50391 14 7.51391 14 10.0039C14 12.4939 11.99 14.5039 9.5 14.5039Z" fill="#245073"/>
    </g>
    <defs>
        <clipPath id="clip0_1064_31274">
            <rect width="24" height="24" fill="white" transform="translate(0 0.503906)"/>
        </clipPath>
    </defs>
</svg>
