<svg width="15" height="12" viewBox="0 0 15 12" fill="none" xmlns="http://www.w3.org/2000/svg">
    <path fill-rule="evenodd" clip-rule="evenodd" d="M14 0.666626H13C12.4477 0.666626 12 1.11434 12 1.66663V10.3333C12 10.8856 12.4477 11.3333 13 11.3333H14C14.5523 11.3333 15 10.8856 15 10.3333V1.66663C15 1.11434 14.5523 0.666626 14 0.666626ZM9 2.99997H10C10.5523 2.99997 11 3.44768 11 3.99997V10.3333C11 10.8856 10.5523 11.3333 10 11.3333H9C8.44771 11.3333 8 10.8856 8 10.3333V3.99997C8 3.44768 8.44771 2.99997 9 2.99997ZM6 5.33328H5C4.44772 5.33328 4 5.781 4 6.33328V10.3333C4 10.8856 4.44772 11.3333 5 11.3333H6C6.55228 11.3333 7 10.8856 7 10.3333V6.33328C7 5.781 6.55228 5.33328 6 5.33328ZM2 7.33329H1C0.447715 7.33329 0 7.78101 0 8.33329V10.3333C0 10.8856 0.447715 11.3333 1 11.3333H2C2.55228 11.3333 3 10.8856 3 10.3333V8.33329C3 7.78101 2.55228 7.33329 2 7.33329Z" fill="#240073"/>
</svg>
