<svg width="25" height="25" viewBox="0 0 25 25" fill="none" xmlns="http://www.w3.org/2000/svg">
    <path fill-rule="evenodd" clip-rule="evenodd" d="M12.2773 2.5C17.8002 2.5 22.2773 6.97715 22.2773 12.5C22.2773 18.0228 17.8002 22.5 12.2773 22.5C6.7545 22.5 2.27734 18.0228 2.27734 12.5C2.27734 6.97715 6.7545 2.5 12.2773 2.5ZM12.2773 4.5C7.85907 4.5 4.27734 8.08172 4.27734 12.5C4.27734 16.9183 7.85907 20.5 12.2773 20.5C16.6956 20.5 20.2773 16.9183 20.2773 12.5C20.2773 8.08172 16.6956 4.5 12.2773 4.5ZM12.2773 10.5C12.8296 10.5 13.2773 10.9477 13.2773 11.5V17.5C13.2773 18.0523 12.8296 18.5 12.2773 18.5C11.7251 18.5 11.2773 18.0523 11.2773 17.5V11.5C11.2773 10.9477 11.7251 10.5 12.2773 10.5ZM12.2773 6.5C12.8296 6.5 13.2773 6.94772 13.2773 7.5C13.2773 8.05228 12.8296 8.5 12.2773 8.5C11.7251 8.5 11.2773 8.05228 11.2773 7.5C11.2773 6.94772 11.7251 6.5 12.2773 6.5Z" fill="white"/>
</svg>
