<svg width="159" height="14" viewBox="0 0 159 14" fill="none" xmlns="http://www.w3.org/2000/svg">
    <path d="M1.47541 11V3.72727H3.93279C4.50334 3.72727 4.96973 3.83026 5.33194 4.03622C5.69653 4.23982 5.96641 4.51562 6.1416 4.86364C6.31679 5.21165 6.40439 5.59991 6.40439 6.02841C6.40439 6.45691 6.31679 6.84635 6.1416 7.19673C5.96878 7.54711 5.70126 7.82647 5.33904 8.0348C4.97683 8.24077 4.51281 8.34375 3.947 8.34375H2.18564V7.5625H3.91859C4.30922 7.5625 4.6229 7.49503 4.85964 7.36009C5.09638 7.22514 5.26802 7.04285 5.37456 6.81321C5.48346 6.5812 5.53791 6.3196 5.53791 6.02841C5.53791 5.73722 5.48346 5.4768 5.37456 5.24716C5.26802 5.01752 5.0952 4.83759 4.85609 4.70739C4.61698 4.57481 4.29975 4.50852 3.90439 4.50852H2.35609V11H1.47541ZM9.86674 11.1136C9.37432 11.1136 8.94226 10.9964 8.57058 10.7621C8.20126 10.5277 7.91243 10.1998 7.7041 9.77841C7.49814 9.35701 7.39515 8.86458 7.39515 8.30114C7.39515 7.73295 7.49814 7.23698 7.7041 6.81321C7.91243 6.38944 8.20126 6.06037 8.57058 5.82599C8.94226 5.59162 9.37432 5.47443 9.86674 5.47443C10.3592 5.47443 10.79 5.59162 11.1594 5.82599C11.531 6.06037 11.8199 6.38944 12.0258 6.81321C12.2342 7.23698 12.3383 7.73295 12.3383 8.30114C12.3383 8.86458 12.2342 9.35701 12.0258 9.77841C11.8199 10.1998 11.531 10.5277 11.1594 10.7621C10.79 10.9964 10.3592 11.1136 9.86674 11.1136ZM9.86674 10.3608C10.2408 10.3608 10.5486 10.2649 10.79 10.0732C11.0315 9.88139 11.2103 9.62926 11.3263 9.31676C11.4423 9.00426 11.5003 8.66572 11.5003 8.30114C11.5003 7.93655 11.4423 7.59683 11.3263 7.28196C11.2103 6.96709 11.0315 6.71259 10.79 6.51847C10.5486 6.32434 10.2408 6.22727 9.86674 6.22727C9.49269 6.22727 9.18493 6.32434 8.94345 6.51847C8.70197 6.71259 8.52323 6.96709 8.40723 7.28196C8.29122 7.59683 8.23322 7.93655 8.23322 8.30114C8.23322 8.66572 8.29122 9.00426 8.40723 9.31676C8.52323 9.62926 8.70197 9.88139 8.94345 10.0732C9.18493 10.2649 9.49269 10.3608 9.86674 10.3608ZM14.6679 11L13.0059 5.54545H13.8866L15.0656 9.72159H15.1224L16.2872 5.54545H17.1821L18.3327 9.70739H18.3895L19.5684 5.54545H20.4491L18.7872 11H17.9633L16.7702 6.80966H16.6849L15.4917 11H14.6679ZM23.6585 11.1136C23.1329 11.1136 22.6795 10.9976 22.2984 10.7656C21.9196 10.5312 21.6272 10.2045 21.4213 9.78551C21.2177 9.36411 21.1159 8.87405 21.1159 8.31534C21.1159 7.75663 21.2177 7.2642 21.4213 6.83807C21.6272 6.40956 21.9137 6.07576 22.2806 5.83665C22.6499 5.59517 23.0808 5.47443 23.5732 5.47443C23.8573 5.47443 24.1379 5.52178 24.4149 5.61648C24.6919 5.71117 24.944 5.86506 25.1713 6.07812C25.3985 6.28883 25.5796 6.56818 25.7146 6.91619C25.8495 7.2642 25.917 7.69271 25.917 8.2017V8.55682H21.7124V7.83239H25.0647C25.0647 7.52462 25.0032 7.25 24.8801 7.00852C24.7593 6.76705 24.5865 6.57647 24.3616 6.43679C24.1391 6.29711 23.8763 6.22727 23.5732 6.22727C23.2394 6.22727 22.9506 6.31013 22.7068 6.47585C22.4653 6.6392 22.2794 6.85227 22.1492 7.11506C22.019 7.37784 21.9539 7.65956 21.9539 7.96023V8.44318C21.9539 8.85511 22.0249 9.20431 22.167 9.49077C22.3114 9.77486 22.5115 9.99148 22.7671 10.1406C23.0228 10.2874 23.3199 10.3608 23.6585 10.3608C23.8786 10.3608 24.0775 10.33 24.2551 10.2685C24.435 10.2045 24.5901 10.1098 24.7203 9.98438C24.8505 9.85653 24.9511 9.69792 25.0221 9.50852L25.8318 9.7358C25.7465 10.0104 25.6033 10.2519 25.4021 10.4602C25.2008 10.6662 24.9523 10.8272 24.6563 10.9432C24.3604 11.0568 24.0278 11.1136 23.6585 11.1136ZM27.1919 11V5.54545H28.0015V6.36932H28.0583C28.1578 6.09943 28.3377 5.88045 28.5981 5.71236C28.8585 5.54427 29.1521 5.46023 29.4788 5.46023C29.5403 5.46023 29.6173 5.46141 29.7096 5.46378C29.8019 5.46615 29.8718 5.4697 29.9191 5.47443V6.3267C29.8907 6.3196 29.8256 6.30895 29.7238 6.29474C29.6244 6.27817 29.519 6.26989 29.4078 6.26989C29.1426 6.26989 28.9059 6.32552 28.6975 6.43679C28.4916 6.54569 28.3282 6.69721 28.2075 6.89134C28.0891 7.0831 28.0299 7.30208 28.0299 7.5483V11H27.1919ZM33.0335 11.1136C32.5079 11.1136 32.0545 10.9976 31.6734 10.7656C31.2946 10.5312 31.0022 10.2045 30.7963 9.78551C30.5927 9.36411 30.4909 8.87405 30.4909 8.31534C30.4909 7.75663 30.5927 7.2642 30.7963 6.83807C31.0022 6.40956 31.2887 6.07576 31.6556 5.83665C32.0249 5.59517 32.4558 5.47443 32.9482 5.47443C33.2323 5.47443 33.5129 5.52178 33.7899 5.61648C34.0669 5.71117 34.319 5.86506 34.5463 6.07812C34.7735 6.28883 34.9546 6.56818 35.0896 6.91619C35.2245 7.2642 35.292 7.69271 35.292 8.2017V8.55682H31.0874V7.83239H34.4397C34.4397 7.52462 34.3782 7.25 34.2551 7.00852C34.1343 6.76705 33.9615 6.57647 33.7366 6.43679C33.5141 6.29711 33.2513 6.22727 32.9482 6.22727C32.6144 6.22727 32.3256 6.31013 32.0818 6.47585C31.8403 6.6392 31.6544 6.85227 31.5242 7.11506C31.394 7.37784 31.3289 7.65956 31.3289 7.96023V8.44318C31.3289 8.85511 31.3999 9.20431 31.542 9.49077C31.6864 9.77486 31.8865 9.99148 32.1421 10.1406C32.3978 10.2874 32.6949 10.3608 33.0335 10.3608C33.2536 10.3608 33.4525 10.33 33.6301 10.2685C33.81 10.2045 33.9651 10.1098 34.0953 9.98438C34.2255 9.85653 34.3261 9.69792 34.3971 9.50852L35.2068 9.7358C35.1215 10.0104 34.9783 10.2519 34.7771 10.4602C34.5758 10.6662 34.3273 10.8272 34.0313 10.9432C33.7354 11.0568 33.4028 11.1136 33.0335 11.1136ZM38.6265 11.1136C38.172 11.1136 37.7707 10.9988 37.4227 10.7692C37.0747 10.5372 36.8024 10.2105 36.6059 9.78906C36.4094 9.36529 36.3112 8.86458 36.3112 8.28693C36.3112 7.71402 36.4094 7.21686 36.6059 6.79545C36.8024 6.37405 37.0758 6.04853 37.4262 5.81889C37.7766 5.58925 38.1814 5.47443 38.6407 5.47443C38.9958 5.47443 39.2764 5.53362 39.4823 5.65199C39.6907 5.76799 39.8493 5.90057 39.9582 6.04972C40.0695 6.1965 40.1559 6.31723 40.2174 6.41193H40.2884V3.72727H41.1265V11H40.3169V10.1619H40.2174C40.1559 10.2614 40.0683 10.3868 39.9546 10.5384C39.841 10.6875 39.6788 10.8213 39.4681 10.9396C39.2574 11.0556 38.9769 11.1136 38.6265 11.1136ZM38.7401 10.3608C39.0763 10.3608 39.3604 10.2732 39.5924 10.098C39.8244 9.92045 40.0008 9.67543 40.1215 9.36293C40.2423 9.04806 40.3026 8.68466 40.3026 8.27273C40.3026 7.86553 40.2435 7.50923 40.1251 7.20384C40.0067 6.89607 39.8315 6.65696 39.5995 6.48651C39.3675 6.31368 39.0811 6.22727 38.7401 6.22727C38.385 6.22727 38.0891 6.31842 37.8524 6.50071C37.618 6.68063 37.4416 6.92566 37.3232 7.2358C37.2072 7.54356 37.1492 7.8892 37.1492 8.27273C37.1492 8.66098 37.2084 9.01373 37.3268 9.33097C37.4475 9.64583 37.6251 9.89678 37.8595 10.0838C38.0962 10.2685 38.3898 10.3608 38.7401 10.3608ZM45.7039 11V3.72727H46.542V6.41193H46.613C46.6746 6.31723 46.7598 6.1965 46.8687 6.04972C46.98 5.90057 47.1386 5.76799 47.3445 5.65199C47.5529 5.53362 47.8346 5.47443 48.1897 5.47443C48.649 5.47443 49.0538 5.58925 49.4042 5.81889C49.7546 6.04853 50.028 6.37405 50.2245 6.79545C50.421 7.21686 50.5193 7.71402 50.5193 8.28693C50.5193 8.86458 50.421 9.36529 50.2245 9.78906C50.028 10.2105 49.7558 10.5372 49.4078 10.7692C49.0597 10.9988 48.6585 11.1136 48.2039 11.1136C47.8535 11.1136 47.573 11.0556 47.3623 10.9396C47.1516 10.8213 46.9894 10.6875 46.8758 10.5384C46.7622 10.3868 46.6746 10.2614 46.613 10.1619H46.5136V11H45.7039ZM46.5278 8.27273C46.5278 8.68466 46.5882 9.04806 46.7089 9.36293C46.8296 9.67543 47.006 9.92045 47.238 10.098C47.47 10.2732 47.7541 10.3608 48.0903 10.3608C48.4407 10.3608 48.733 10.2685 48.9674 10.0838C49.2042 9.89678 49.3817 9.64583 49.5001 9.33097C49.6208 9.01373 49.6812 8.66098 49.6812 8.27273C49.6812 7.8892 49.622 7.54356 49.5036 7.2358C49.3876 6.92566 49.2113 6.68063 48.9745 6.50071C48.7401 6.31842 48.4454 6.22727 48.0903 6.22727C47.7494 6.22727 47.4629 6.31368 47.2309 6.48651C46.9989 6.65696 46.8237 6.89607 46.7053 7.20384C46.587 7.50923 46.5278 7.86553 46.5278 8.27273ZM52.1457 13.0455C52.0036 13.0455 51.877 13.0336 51.7657 13.0099C51.6544 12.9886 51.5775 12.9673 51.5349 12.946L51.748 12.2074C51.9516 12.2595 52.1315 12.2784 52.2877 12.2642C52.444 12.25 52.5825 12.1802 52.7032 12.0547C52.8263 11.9316 52.9388 11.7315 53.0406 11.4545L53.1968 11.0284L51.1798 5.54545H52.0889L53.5945 9.89205H53.6514L55.157 5.54545H56.0661L53.7508 11.7955C53.6466 12.0772 53.5176 12.3104 53.3637 12.495C53.2098 12.6821 53.0311 12.8205 52.8275 12.9105C52.6263 13.0005 52.399 13.0455 52.1457 13.0455Z" fill="#646E7B"/>
    <g clip-path="url(#clip0_383_1636)">
        <path d="M68.3857 3.18709V5.2565H69.7572V7.05717H68.3857V10.877C68.3857 11.1905 68.4436 11.4088 68.554 11.5328C68.6672 11.6564 68.8911 11.7169 69.2254 11.7169C69.4834 11.7169 69.6993 11.7012 69.8729 11.6696V13.5307C69.407 13.6809 68.9175 13.7545 68.4092 13.7545C67.5142 13.7545 66.8533 13.5438 66.4269 13.1227C66.0003 12.6989 65.7871 12.059 65.7871 11.2009V7.05717H64.7209V5.2565H65.7871V3.18709H68.3856H68.3857ZM75.8333 7.60737L74.975 7.54665C74.1589 7.54665 73.635 7.80482 73.4035 8.31804V13.5965H70.8025V5.25641H73.2402L73.3245 6.32775C73.7613 5.50916 74.3723 5.09844 75.1541 5.09844C75.4305 5.09844 75.6727 5.13 75.878 5.19045L75.8332 7.60728L75.8333 7.60737ZM81.2406 13.5966C81.1458 13.4282 81.0642 13.1807 80.9934 12.8541C80.514 13.4543 79.8454 13.7545 78.9872 13.7545C78.2001 13.7545 77.5314 13.5174 76.9812 13.0411C76.431 12.5645 76.1571 11.9643 76.1571 11.2429C76.1571 10.3375 76.4915 9.65296 77.1601 9.18953C77.8288 8.72636 78.8004 8.49451 80.0745 8.49451H80.8775V8.05223C80.8775 7.2836 80.5456 6.89928 79.8822 6.89928C79.2663 6.89928 78.9556 7.20474 78.9556 7.81273H76.3572C76.3572 7.0073 76.6994 6.35433 77.3864 5.8516C78.0737 5.3486 78.9476 5.09861 80.014 5.09861C81.0774 5.09861 81.9171 5.35927 82.5358 5.87791C83.152 6.39655 83.4679 7.10998 83.4836 8.01293V11.7064C83.4942 12.4725 83.6126 13.0596 83.839 13.4651V13.5967H81.2405L81.2406 13.5966ZM79.6111 11.9063C79.9349 11.9063 80.2036 11.8379 80.4193 11.6984C80.6327 11.5588 80.7854 11.4009 80.8775 11.2245V9.88446H80.122C79.2163 9.88446 78.7636 10.2927 78.7636 11.1088C78.7636 11.3456 78.8424 11.5379 79.0031 11.6851C79.1611 11.8326 79.3662 11.9062 79.6111 11.9062V11.9063ZM88.1383 10.5059L89.4571 5.2565H92.1949L89.4728 13.5966H86.8192L84.0971 5.2565H86.8431L88.1384 10.5059H88.1383ZM96.9072 13.7545C95.6252 13.7545 94.5906 13.3727 93.7984 12.6093C93.0058 11.8459 92.6108 10.8509 92.6108 9.62656V9.41062C92.6108 8.55771 92.7688 7.80491 93.0848 7.15194C93.4007 6.49648 93.8616 5.99099 94.4696 5.63557C95.0751 5.27766 95.7964 5.09853 96.6285 5.09853C97.7998 5.09853 98.7267 5.46168 99.4058 6.19102C100.085 6.92035 100.425 7.93381 100.425 9.237V10.248H95.2569C95.349 10.7139 95.5517 11.0825 95.8649 11.3485C96.1784 11.6144 96.5839 11.7484 97.084 11.7484C97.9054 11.7484 98.5502 11.4616 99.0111 10.8878L100.201 12.291C99.877 12.7357 99.4163 13.0939 98.8241 13.3572C98.2291 13.6231 97.5895 13.7546 96.9075 13.7546L96.9072 13.7545ZM96.6124 7.10447C95.8518 7.10447 95.3987 7.60986 95.2567 8.62083H97.8788V8.42081C97.8892 8.00218 97.784 7.67849 97.5628 7.4494C97.3417 7.2203 97.023 7.10438 96.6123 7.10438L96.6124 7.10447ZM104.21 13.5966H101.604V2.92119H104.21V13.5966Z" fill="#EF4A67"/>
        <path d="M139.893 11.6309C140.212 11.6309 140.479 11.7248 140.689 11.9154C140.902 12.1058 141.009 12.3475 141.009 12.6442C141.009 12.9393 140.902 13.1828 140.689 13.3733C140.478 13.5637 140.212 13.6579 139.893 13.6579C139.569 13.6579 139.301 13.5616 139.092 13.369C138.881 13.1788 138.777 12.937 138.777 12.6442C138.777 12.3514 138.881 12.1099 139.092 11.9193C139.301 11.727 139.569 11.6307 139.893 11.6307V11.6309ZM144.263 7.10978L144.328 7.86925C144.789 7.28171 145.405 6.98692 146.181 6.98692C147.002 6.98692 147.555 7.31256 147.844 7.96348C148.284 7.31247 148.919 6.98692 149.752 6.98692C151.067 6.98692 151.742 7.78337 151.779 9.37441V13.5965H149.752V9.50127C149.752 9.16941 149.695 8.92591 149.582 8.77443C149.472 8.62294 149.267 8.54711 148.972 8.54711C148.571 8.54711 148.274 8.72527 148.077 9.08167L148.083 9.1655V13.5965H146.056V9.51345C146.056 9.17368 146.001 8.92591 145.894 8.77443C145.786 8.62294 145.579 8.54711 145.276 8.54711C144.889 8.54711 144.592 8.72527 144.387 9.08167V13.5965H142.366V7.10978H144.262H144.263ZM154.793 7.10978L154.859 7.87147C155.307 7.28171 155.924 6.98692 156.712 6.98692C157.387 6.98692 157.893 7.18961 158.227 7.59286C158.561 7.99638 158.735 8.60454 158.745 9.41522V13.5965H156.718V9.50127C156.718 9.17368 156.652 8.93214 156.519 8.77843C156.388 8.62499 156.149 8.54711 155.801 8.54711C155.405 8.54711 155.111 8.70286 154.918 9.01401V13.5965H152.897V7.10978H154.793Z" fill="#016462"/>
        <path d="M113.029 10.1038C113.029 9.63393 112.861 9.26988 112.531 9.0086C112.198 8.74733 111.617 8.47671 110.786 8.19668C109.952 7.91691 109.274 7.6463 108.745 7.38493C107.025 6.53878 106.167 5.37855 106.167 3.90085C106.167 3.16681 106.378 2.51659 106.807 1.95359C107.237 1.39058 107.843 0.955062 108.627 0.6408C109.408 0.326805 110.291 0.17123 111.268 0.17123C112.223 0.17123 113.078 0.342274 113.834 0.681427C114.59 1.0204 115.178 1.50571 115.598 2.13396C116.018 2.76231 116.227 3.48098 116.227 4.28659H113.038C113.038 3.74528 112.87 3.32549 112.54 3.02679C112.208 2.72826 111.76 2.57891 111.197 2.57891C110.624 2.57891 110.173 2.70639 109.843 2.95833C109.511 3.21045 109.346 3.53387 109.346 3.92281C109.346 4.26499 109.529 4.57285 109.893 4.84968C110.257 5.12669 110.898 5.41286 111.815 5.70819C112.733 6.00369 113.486 6.32418 114.074 6.66333C115.508 7.49081 116.227 8.62936 116.227 10.0851C116.227 11.2453 115.788 12.1568 114.914 12.8194C114.04 13.482 112.839 13.8147 111.315 13.8147C110.238 13.8147 109.265 13.622 108.394 13.2362C107.523 12.8505 106.866 12.3217 106.425 11.6498C105.983 10.9779 105.765 10.2032 105.765 9.32918H108.972C108.972 10.0386 109.156 10.5641 109.523 10.9C109.89 11.2392 110.487 11.4071 111.315 11.4071C111.844 11.4071 112.26 11.292 112.569 11.0649C112.873 10.8379 113.029 10.5175 113.029 10.1039L113.029 10.1038ZM121.275 13.6281H118.087V0.357831H121.275V13.6281ZM127.702 0.357831L130.664 9.59036L133.616 0.357831H137.827V13.6281H134.62V10.5298L134.928 4.18711L131.721 13.6281H129.606L126.389 4.17769L126.701 10.5298V13.6281H123.5V0.357831H127.702Z" fill="#EF4A67"/>
    </g>
    <defs>
        <clipPath id="clip0_383_1636">
            <rect width="94.5" height="14" fill="white" transform="translate(64.5)"/>
        </clipPath>
    </defs>
</svg>
