<?xml version="1.0" encoding="UTF-8"?>
<!DOCTYPE svg PUBLIC "-//W3C//DTD SVG 1.1//EN" "http://www.w3.org/Graphics/SVG/1.1/DTD/svg11.dtd">
<!-- Creator: CorelDRAW 2021 (64-Bit) -->
<svg xmlns="http://www.w3.org/2000/svg" xml:space="preserve" width="10.6299in" height="1.5748in" version="1.1" style="shape-rendering:geometricPrecision; text-rendering:geometricPrecision; image-rendering:optimizeQuality; fill-rule:evenodd; clip-rule:evenodd"
viewBox="0 0 10629.92 1574.8"
 xmlns:xlink="http://www.w3.org/1999/xlink"
 xmlns:xodm="http://www.corel.com/coreldraw/odm/2003">
 <defs>
  <style type="text/css">
   <![CDATA[
    .fil0 {fill:#EF4A67;fill-rule:nonzero}
    .fil1 {fill:#016462;fill-rule:nonzero}
   ]]>
  </style>
 </defs>
 <g id="Layer_x0020_1">
  <metadata id="CorelCorpID_0Corel-Layer"/>
  <g id="_1849746840288">
   <path class="fil0" d="M437.08 358.5l0 232.78 154.28 0 0 202.55 -154.28 0 0 429.68c0,35.26 6.52,59.82 18.94,73.76 12.73,13.91 37.91,20.71 75.52,20.71 29.02,0 53.3,-1.76 72.83,-5.32l0 209.35c-52.41,16.9 -107.47,25.18 -164.64,25.18 -100.68,0 -175.02,-23.7 -222.98,-71.07 -47.99,-47.68 -71.97,-119.65 -71.97,-216.18l0 -466.11 -119.93 0 0 -202.55 119.93 0 0 -232.78 292.29 0zm837.75 497.22l-96.54 -6.83c-91.8,0 -150.73,29.04 -176.78,86.77l0 593.75 -292.57 0 0 -938.14 274.21 0 9.48 120.51c49.13,-92.08 117.86,-138.28 205.8,-138.28 31.09,0 58.34,3.55 81.43,10.35l-5.04 271.86zm608.25 673.7c-10.66,-18.94 -19.84,-46.78 -27.81,-83.52 -53.92,67.52 -129.13,101.29 -225.67,101.29 -88.54,0 -163.75,-26.67 -225.64,-80.25 -61.89,-53.61 -92.7,-121.13 -92.7,-202.27 0,-101.85 37.61,-178.85 112.82,-230.98 75.22,-52.1 184.51,-78.18 327.83,-78.18l90.32 0 0 -49.75c0,-86.46 -37.33,-129.69 -111.95,-129.69 -69.28,0 -104.23,34.36 -104.23,102.75l-292.29 0c0,-90.6 38.5,-164.05 115.78,-220.6 77.31,-56.58 175.61,-84.7 295.56,-84.7 119.62,0 214.08,29.32 283.67,87.66 69.31,58.34 104.85,138.59 106.61,240.16l0 415.46c1.2,86.18 14.52,152.22 39.98,197.83l0 14.8 -292.29 0zm-183.3 -190.13c36.43,0 66.65,-7.69 90.91,-23.39 24.01,-15.7 41.19,-33.46 51.54,-53.3l0 -150.74 -84.98 0c-101.88,0 -152.8,45.92 -152.8,137.72 0,26.64 8.87,48.27 26.94,64.83 17.77,16.59 40.85,24.87 68.39,24.87zm959.19 -157.53l148.35 -590.48 307.96 0 -306.19 938.14 -298.5 0 -306.19 -938.14 308.88 0 145.7 590.48zm986.38 365.43c-144.21,0 -260.59,-42.95 -349.7,-128.82 -89.15,-85.87 -133.58,-197.8 -133.58,-335.52l0 -24.29c0,-95.94 17.77,-180.62 53.31,-254.07 35.54,-73.73 87.38,-130.59 155.77,-170.57 68.11,-40.26 149.25,-60.41 242.85,-60.41 131.76,0 236.02,40.85 312.41,122.89 76.41,82.04 114.61,196.04 114.61,342.63l0 113.72 -581.3 0c10.35,52.41 33.16,93.87 68.39,123.79 35.26,29.91 80.87,44.99 137.13,44.99 92.39,0 164.92,-32.26 216.77,-96.81l133.83 157.84c-36.43,50.03 -88.25,90.32 -154.87,119.93 -66.93,29.91 -138.87,44.71 -215.59,44.71zm-33.16 -748.04c-85.56,0 -136.52,56.85 -152.5,170.57l294.95 0 0 -22.5c1.17,-47.09 -10.66,-83.5 -35.54,-109.27 -24.88,-25.77 -60.72,-38.81 -106.92,-38.81zm854.65 730.27l-293.19 0 0 -1200.83 293.19 0 0 1200.83z"/>
   <path class="fil1" d="M8480.65 1308.31c35.93,0 65.87,10.57 89.59,32.01 23.95,21.41 35.93,48.6 35.93,81.98 0,33.19 -11.98,60.58 -35.93,82.01 -23.73,21.41 -53.67,32.01 -89.59,32.01 -36.41,0 -66.57,-10.83 -90.07,-32.49 -23.73,-21.4 -35.48,-48.6 -35.48,-81.54 0,-32.93 11.75,-60.1 35.48,-81.54 23.5,-21.63 53.67,-32.46 90.07,-32.46zm491.51 -508.56l7.36 85.43c51.82,-66.09 121.16,-99.25 208.46,-99.25 92.36,0 154.54,36.63 187.02,109.85 49.53,-73.23 120.91,-109.85 214.67,-109.85 147.85,0 223.87,89.59 228.02,268.56l0 474.92 -228.02 0 0 -460.65c0,-37.33 -6.46,-64.72 -19.14,-81.76 -12.43,-17.04 -35.45,-25.57 -68.64,-25.57 -45.13,0 -78.54,20.04 -100.65,60.13l0.7 9.43 0 498.42 -228.02 0 0 -459.28c0,-38.22 -6.24,-66.09 -18.22,-83.13 -12.2,-17.04 -35.45,-25.57 -69.56,-25.57 -43.51,0 -76.92,20.04 -99.95,60.13l0 507.85 -227.32 0 0 -729.66 213.27 0zm1184.55 0l7.39 85.68c50.42,-66.34 119.76,-99.5 208.43,-99.5 76,0 132.91,22.8 170.43,68.16 37.55,45.39 57.14,113.8 58.28,204.99l0 470.33 -228.02 0 0 -460.65c0,-36.85 -7.39,-64.02 -22.36,-81.31 -14.74,-17.26 -41.69,-26.02 -80.83,-26.02 -44.46,0 -77.62,17.52 -99.28,52.52l0 515.46 -227.31 0 0 -729.66 213.27 0z"/>
   <path class="fil0" d="M5458.8 1136.53c0,-52.85 -18.88,-93.8 -55.98,-123.19 -37.43,-29.39 -102.87,-59.83 -196.3,-91.33 -93.77,-31.47 -170.05,-61.91 -229.52,-91.31 -193.5,-95.18 -290.07,-225.69 -290.07,-391.91 0,-82.57 23.79,-155.71 72.06,-219.04 48.3,-63.33 116.53,-112.32 204.7,-147.67 87.83,-35.32 187.21,-52.82 297.06,-52.82 107.44,0 203.65,19.24 288.69,57.39 85.04,38.13 151.17,92.72 198.39,163.39 47.25,70.68 70.7,151.52 70.7,242.14l-358.67 0c0,-60.89 -18.89,-108.11 -55.98,-141.71 -37.43,-33.58 -87.84,-50.38 -151.17,-50.38 -64.38,0 -115.12,14.34 -152.22,42.68 -37.43,28.36 -55.98,64.74 -55.98,108.49 0,38.49 20.65,73.12 61.58,104.26 40.95,31.16 113.04,63.35 216.24,96.57 103.22,33.24 187.9,69.29 254.06,107.44 161.29,93.08 242.14,221.15 242.14,384.9 0,130.51 -49.35,233.04 -147.67,307.57 -98.32,74.53 -233.4,111.96 -404.84,111.96 -121.08,0 -230.6,-21.68 -328.59,-65.07 -97.96,-43.39 -171.8,-102.87 -221.48,-178.45 -49.69,-75.58 -74.17,-162.72 -74.17,-261.04l360.75 0c0,79.8 20.63,138.91 61.94,176.7 41.29,38.15 108.47,57.04 201.55,57.04 59.47,0 106.36,-12.95 141.02,-38.49 34.28,-25.54 51.77,-61.58 51.77,-108.11zm927.62 396.44l-358.65 0 0 -1492.72 358.65 0 0 1492.72zm722.92 -1492.72l333.13 1038.53 332.06 -1038.53 473.77 0 0 1492.72 -360.75 0 0 -348.52 34.66 -713.46 -360.78 1061.98 -237.93 0 -361.8 -1063.04 34.99 714.52 0 348.52 -360.06 0 0 -1492.72 472.71 0z"/>
  </g>
 </g>
</svg>
