<svg width="20" height="21" viewBox="0 0 20 21" fill="none" xmlns="http://www.w3.org/2000/svg">
    <rect y="0.5" width="20" height="20" rx="6.25" fill="#F5F7FA"/>
    <path d="M15.2983 4.7599C16.5288 5.84388 17.2026 8.21693 16.7338 11.9962C16.2944 15.629 13.5405 15.9806 13.0717 16.1564C12.8374 16.215 10.9917 16.6837 8.58932 16.4786C8.32565 16.8009 7.97408 17.1818 7.71041 17.4747C7.24166 17.9728 6.97799 18.4415 6.47994 18.2951C6.06979 18.1486 6.09908 17.5333 6.09908 17.5333V16.0392C2.58346 15.0431 2.64205 11.381 2.67135 9.4474C2.70065 7.48451 3.08151 5.93177 4.16549 4.84779C6.09908 3.08998 10.0542 3.32435 10.0542 3.32435C13.394 3.32435 14.9174 4.43763 15.2983 4.7599ZM15.6792 11.7033C16.0893 8.56849 15.562 6.42982 14.5073 5.52162C14.185 5.25795 12.8374 4.37904 9.99557 4.37904C9.99557 4.37904 6.62643 4.14467 4.9858 5.63881C4.0776 6.54701 3.78463 7.86537 3.75533 9.50599C3.72604 11.1173 3.55026 14.2228 6.50924 15.0431C6.50924 15.0431 6.50924 17.3576 6.50924 17.5626C6.50924 17.8849 6.68502 17.8849 6.83151 17.7384C7.30026 17.2404 8.82369 15.424 8.82369 15.424C10.8745 15.5411 12.4858 15.131 12.6616 15.1017C13.0717 14.9552 15.3276 14.7501 15.6792 11.7033ZM11.6069 9.35951C11.5776 8.5099 11.1381 8.04115 10.3178 7.98256C10.0542 7.98256 10.0249 8.36342 10.2885 8.36342C10.9038 8.42201 11.1967 8.71498 11.2553 9.35951C11.2553 9.62318 11.6362 9.59388 11.6069 9.35951ZM12.2221 9.68177C12.2221 9.91615 12.603 9.94545 12.603 9.68177C12.6323 8.27552 11.7241 7.10365 10.0249 6.98646C9.76119 6.95717 9.7319 7.33802 9.99557 7.36732C11.4604 7.45521 12.2514 8.45131 12.2221 9.68177ZM13.5991 10.0626C13.5698 7.51381 11.8413 6.01967 9.6733 5.99037C9.43893 5.99037 9.43893 6.37123 9.6733 6.37123C11.6069 6.40052 13.1889 7.68959 13.2182 10.0626C13.2182 10.3263 13.5991 10.3263 13.5991 10.0626ZM13.2475 12.9337C13.394 12.6701 13.3647 12.4357 13.1596 12.2599C12.7788 11.9083 12.2514 11.5275 11.812 11.2931C11.4897 11.1173 11.1674 11.2345 11.021 11.4103L10.7573 11.7619C10.6108 11.9376 10.3471 11.9083 10.3471 11.9083C8.38424 11.4103 7.8569 9.4474 7.8569 9.4474C7.8569 9.4474 7.8569 9.18373 8.03268 9.03724L8.38424 8.74427C8.56002 8.59779 8.64791 8.27552 8.47213 7.95326C8.38424 7.77748 8.17916 7.45521 8.03268 7.27943C7.88619 7.04506 7.50533 6.6349 7.50533 6.6349C7.35885 6.40052 7.09518 6.37123 6.83151 6.51771H6.80221C6.24557 6.81068 5.63033 7.42592 5.83541 8.01185C5.83541 8.01185 5.9819 8.5392 6.59713 9.65248C6.8901 10.2091 7.21237 10.6486 7.50533 11.0294C7.8276 11.4396 8.26705 11.879 8.7358 12.2599C9.6733 12.9923 11.1088 13.754 11.7241 13.9298H11.7534C12.3393 14.1349 12.9546 13.5197 13.2475 12.963V12.9337Z" fill="#9169AF"/>
</svg>
