<svg width="37" height="36" viewBox="0 0 37 36" fill="none" xmlns="http://www.w3.org/2000/svg">
    <rect x="0.5" width="36" height="36" rx="8" fill="#FFC830" fill-opacity="0.15"/>
    <path fill-rule="evenodd" clip-rule="evenodd" d="M19.4427 10.2231C19.8508 10.4271 20.1817 10.758 20.3857 11.166L26.2769 22.9485C26.7977 23.9901 26.3755 25.2566 25.334 25.7774C25.0412 25.9238 24.7183 26 24.391 26H12.6085C11.444 26 10.5 25.056 10.5 23.8915C10.5 23.5641 10.5762 23.2413 10.7226 22.9485L16.6138 11.166C17.1346 10.1245 18.4012 9.70228 19.4427 10.2231ZM18.5 22C17.9477 22 17.5 22.4477 17.5 23C17.5 23.5523 17.9477 24 18.5 24C19.0523 24 19.5 23.5523 19.5 23C19.5 22.4477 19.0523 22 18.5 22ZM18.5 14C17.9872 14 17.5645 14.386 17.5067 14.8834L17.5 15V19C17.5 19.5523 17.9477 20 18.5 20C19.0128 20 19.4355 19.614 19.4933 19.1166L19.5 19V15C19.5 14.4477 19.0523 14 18.5 14Z" fill="#FFC830"/>
</svg>
