<svg width="20" height="21" viewBox="0 0 20 21" fill="none" xmlns="http://www.w3.org/2000/svg">
    <rect y="0.5" width="20" height="20" rx="6.25" fill="#F5F7FA"/>
    <path fill-rule="evenodd" clip-rule="evenodd" d="M17.5 12.1657C17.5 10.0879 15.477 8.40662 12.9819 8.40662C10.4867 8.40662 8.46387 10.0879 8.46387 12.1657C8.46387 14.236 10.4867 15.9172 12.9819 15.9247C13.4974 15.9172 13.9952 15.8438 14.4639 15.7078C14.4986 15.6985 14.4957 15.6989 14.5867 15.6811C14.6776 15.6633 14.7567 15.7078 14.8253 15.744L15.8012 16.3223C15.8461 16.3463 15.8727 16.3584 15.9096 16.3584C15.9888 16.3584 16.056 16.2911 16.0542 16.2138C16.056 16.1711 16.0423 16.1372 16.0317 16.1014C16.0212 16.0656 15.9001 15.6247 15.8374 15.3464C15.8285 15.307 15.8236 15.2843 15.8236 15.2097C15.8236 15.1351 15.8623 15.055 15.9458 14.9849C16.8913 14.312 17.5 13.2933 17.5 12.1657ZM11.4463 11.515C11.1446 11.515 10.8855 11.2562 10.8855 10.9192C10.8855 10.6174 11.1446 10.3584 11.4463 10.3584C11.7834 10.3584 12.0422 10.6174 12.0422 10.9192C12.0422 11.2562 11.7834 11.515 11.4463 11.515ZM14.4463 11.515C14.1446 11.515 13.8855 11.2562 13.8855 10.9192C13.8855 10.6174 14.1446 10.3584 14.4463 10.3584C14.7834 10.3584 15.0422 10.6174 15.0422 10.9192C15.0422 11.2562 14.7834 11.515 14.4463 11.515Z" fill="#70D45A"/>
    <path fill-rule="evenodd" clip-rule="evenodd" d="M2.5 8.76807C2.5 10.1144 3.22997 11.3366 4.37952 12.1657C4.46419 12.228 4.5095 12.2993 4.50947 12.419C4.5095 12.4603 4.50224 12.5048 4.48795 12.5633C4.39185 12.9565 4.28629 13.4066 4.27108 13.4669C4.25588 13.5272 4.23191 13.5673 4.23494 13.6114C4.23191 13.7115 4.3126 13.7922 4.41566 13.7922C4.45169 13.7922 4.48378 13.7775 4.5241 13.756L5.71687 13.0693C5.79239 13.0236 5.87715 13 5.93437 13C5.99159 13 6.08708 13.0178 6.1506 13.0331C6.70359 13.1745 7.30065 13.2628 7.92169 13.25C8.01889 13.2628 8.11801 13.2603 8.21084 13.25C8.09894 12.9042 8.03462 12.534 8.03012 12.1657C8.03462 9.88158 10.2472 8.04135 12.9819 8.04518C13.0757 8.04135 13.1735 8.04443 13.2711 8.04518C12.863 5.89638 10.6224 4.25 7.92169 4.25C4.92617 4.25 2.5 6.26775 2.5 8.76807ZM6.07832 8.04518C5.67902 8.04518 5.35543 7.72162 5.35543 7.32229C5.35543 6.92309 5.67902 6.5994 6.07832 6.5994C6.47762 6.5994 6.80121 6.92309 6.80121 7.32229C6.80121 7.72162 6.47762 8.04518 6.07832 8.04518ZM9.69278 8.04518C9.29345 8.04518 8.96988 7.72162 8.96988 7.32229C8.96988 6.92309 9.29345 6.5994 9.69278 6.5994C10.092 6.5994 10.4157 6.92309 10.4157 7.32229C10.4157 7.72162 10.092 8.04518 9.69278 8.04518Z" fill="#70D45A"/>
</svg>
