<svg width="57" height="22" viewBox="0 0 57 22" fill="none" xmlns="http://www.w3.org/2000/svg">
<path d="M0.319739 21.5352C0.185838 21.3624 0.0906278 21.1629 0.0405587 20.9502C-0.0095103 20.7375 -0.0132682 20.5165 0.0295398 20.3021C0.622632 16.8079 1.21529 13.3063 1.78868 9.9228C2.16161 7.71895 2.53541 5.5151 2.9114 3.29637C2.98877 2.83201 3.1451 2.38433 3.37362 1.97274C3.59168 1.57996 3.876 1.22782 4.21401 0.931877C4.89566 0.334101 5.77167 0.00501443 6.6783 0.00612789L11.0116 0.00350165C13.496 0 16.0649 0 18.5957 0C18.9721 0.000652291 19.3435 0.0859682 19.6824 0.249628C20.0213 0.413288 20.3191 0.651099 20.5536 0.945446C20.7944 1.24732 20.9683 1.59686 21.064 1.97095C21.1597 2.34505 21.1749 2.73519 21.1086 3.11559L19.0129 15.4821C18.9356 15.9472 18.7791 16.3957 18.5502 16.8079C18.3321 17.2008 18.0476 17.553 17.7094 17.8488C17.0275 18.4467 16.1511 18.7756 15.2442 18.7741H9.01084C8.34157 18.769 7.67479 18.8562 7.02934 19.0332C6.38173 19.2172 5.76222 19.4886 5.18791 19.8399L1.90161 21.814C1.70815 21.9339 1.48538 21.9983 1.25774 22C1.07653 21.9979 0.89813 21.955 0.735753 21.8745C0.573377 21.794 0.431192 21.6781 0.319739 21.5352ZM5.83134 2.97115C5.59893 3.17634 5.44435 3.45536 5.39363 3.76121L2.96217 18.1167L5.28596 16.7204C5.451 16.6228 5.59224 16.4896 5.69944 16.3306C5.80664 16.1717 5.87712 15.9908 5.90575 15.8012L6.85207 10.2353C6.91941 9.61406 7.21779 9.04079 7.68804 8.62924C8.1583 8.21769 8.76605 7.99792 9.39077 8.01353C9.63558 7.99326 9.88177 8.02957 10.1103 8.11967C10.3388 8.20976 10.5436 8.35121 10.7087 8.53309C10.8647 8.76457 10.97 9.02642 11.0176 9.30145C11.0653 9.57648 11.0543 9.85849 10.9853 10.129L9.98298 16.1181H11.4629C11.7652 16.1186 12.0574 16.0098 12.2858 15.8117C12.5178 15.6071 12.6724 15.3289 12.7235 15.0238L13.6159 9.80462C13.743 9.26037 13.7531 8.69536 13.6456 8.14691C13.5382 7.59846 13.3156 7.07904 12.9927 6.62294C12.6832 6.26225 12.295 5.97758 11.858 5.79095C11.421 5.60431 10.9468 5.52071 10.4723 5.54662C9.87893 5.53823 9.29075 5.65843 8.74821 5.89897C8.22745 6.14294 7.76977 6.50342 7.41058 6.95253L8.13455 2.66301H6.65423C6.35171 2.66292 6.05939 2.77238 5.83134 2.97115ZM15.8075 6.14233C15.5755 6.3469 15.4209 6.62511 15.3698 6.93021L13.8099 16.1172H15.288C15.5904 16.1178 15.8829 16.009 16.1113 15.8108C16.3433 15.6062 16.4979 15.328 16.549 15.023L18.1108 5.83681H16.6304C16.3282 5.83592 16.0359 5.94444 15.8075 6.14233ZM16.3398 2.97071C16.108 3.1761 15.9542 3.45515 15.9043 3.76077L15.7038 4.94608H17.1811C17.4838 4.94599 17.7763 4.83621 18.0044 4.63706C18.237 4.43187 18.3916 4.15263 18.4421 3.84656L18.6426 2.66038H17.1614C16.8589 2.66111 16.567 2.77117 16.3394 2.97028L16.3398 2.97071ZM20.7326 20.3827L23.0739 6.5656C23.1035 6.36398 23.2041 6.17956 23.3576 6.04555C23.5112 5.91154 23.7075 5.83674 23.9112 5.83463H25.7496L25.5719 6.89125C25.9953 6.45101 26.5061 6.10408 27.0714 5.87268C27.6367 5.64128 28.2441 5.53052 28.8547 5.54749C29.4946 5.523 30.1298 5.66664 30.697 5.96407C31.2641 6.26151 31.7434 6.70237 32.0872 7.24273C32.8517 8.40359 33.1321 9.81732 32.8685 11.1821C32.6839 12.5823 32.0448 13.8832 31.0494 14.8851C30.5807 15.3758 30.0155 15.7643 29.3895 16.0262C28.7635 16.2881 28.0901 16.4178 27.4116 16.407C26.7756 16.4485 26.141 16.3076 25.5823 16.001C25.0236 15.6943 24.564 15.2346 24.2575 14.6759L23.4074 19.653C23.3778 19.8545 23.2772 20.0387 23.1238 20.1726C22.9704 20.3064 22.7742 20.3811 22.5705 20.3831L20.7326 20.3827ZM26.1072 8.79177C25.5181 9.27483 25.1045 9.93842 24.9302 10.68L24.8383 11.2053C24.7751 11.5501 24.7909 11.9047 24.8845 12.2425C24.978 12.5803 25.1469 12.8925 25.3784 13.1557C25.6113 13.3969 25.8928 13.5858 26.2042 13.7099C26.5157 13.8339 26.8499 13.8903 27.1848 13.8753C27.9361 13.8803 28.6622 13.6052 29.2215 13.1036C29.8323 12.557 30.2253 11.8083 30.3285 10.9952C30.414 10.6351 30.422 10.2609 30.3522 9.89745C30.2823 9.53398 30.1361 9.18949 29.9231 8.88675C29.7094 8.61542 29.4332 8.39982 29.1182 8.25836C28.8031 8.1169 28.4584 8.05377 28.1137 8.07437C27.3811 8.06882 26.6702 8.32299 26.1072 8.79177ZM45.2464 20.2321L45.5449 18.4581C45.5714 18.274 45.6573 18.1036 45.7894 17.9727C45.9216 17.8418 46.0928 17.7576 46.2772 17.7328C46.6499 17.6942 47.0081 17.5672 47.322 17.3625C47.8165 16.9542 48.2093 16.4365 48.4692 15.8502L48.5283 15.7373L46.1647 5.832H48.1024C48.2991 5.8377 48.4882 5.90952 48.6391 6.03587C48.79 6.16222 48.8939 6.33573 48.934 6.52839L50.5334 12.4374L53.3785 6.29334C53.4445 6.15176 53.5504 6.03255 53.6832 5.95035C53.816 5.86816 53.97 5.82656 54.1261 5.83069H56.4486L51.1847 16.1168C50.384 17.6809 49.5031 18.7744 48.5419 19.3974C47.6709 19.962 46.6519 20.2554 45.614 20.2404C45.4918 20.2416 45.3692 20.2388 45.2464 20.2321ZM34.6359 14.6991C33.9065 13.5124 33.6657 12.0892 33.964 10.7286C34.1864 9.32464 34.8555 8.02976 35.872 7.03613C36.3521 6.55438 36.9242 6.17407 37.5543 5.91782C38.1843 5.66156 38.8595 5.53458 39.5395 5.54443C40.1533 5.50511 40.7657 5.64084 41.3053 5.93582C41.845 6.2308 42.2899 6.67293 42.5882 7.21078L42.698 6.56297C42.7277 6.36132 42.8284 6.17689 42.982 6.04289C43.1356 5.90888 43.332 5.8341 43.5358 5.832H45.3742L43.756 15.3871C43.7265 15.5889 43.626 15.7734 43.4725 15.9076C43.3189 16.0417 43.1225 16.1165 42.9186 16.1185H41.0803L41.2383 15.1858C40.349 16.0115 39.1682 16.4504 37.9555 16.4061C37.3 16.4449 36.6462 16.3069 36.0622 16.0066C35.4783 15.7063 34.9857 15.2548 34.6359 14.6991ZM37.6123 8.84648C37.0022 9.39366 36.6093 10.142 36.5054 10.9549C36.4204 11.3156 36.4135 11.6903 36.4851 12.054C36.5566 12.4176 36.705 12.7617 36.9203 13.0633C37.1365 13.334 37.4143 13.549 37.7305 13.6902C38.0468 13.8315 38.3923 13.8949 38.7381 13.8753C39.4852 13.8815 40.2091 13.6157 40.7748 13.1277C41.3846 12.628 41.7923 11.9239 41.922 11.1462L41.9811 10.803C42.0592 10.454 42.0533 10.0914 41.9639 9.74508C41.8744 9.39877 41.7041 9.07864 41.4668 8.81103C41.2382 8.56512 40.9588 8.37183 40.6481 8.24456C40.3374 8.11729 40.0028 8.05907 39.6674 8.07393C38.9098 8.06695 38.1768 8.34255 37.6115 8.84692L37.6123 8.84648Z" fill="#414C58"/>
</svg>
