<svg width="64" height="32" viewBox="0 0 64 32" fill="none" xmlns="http://www.w3.org/2000/svg">
<path d="M24.1044 18.5714H26.4137C26.4797 18.5714 26.6336 18.5495 26.6996 18.5495C27.1395 18.4615 27.5134 18.0659 27.5134 17.5165C27.5134 16.989 27.1395 16.5934 26.6996 16.4835C26.6336 16.4615 26.5017 16.4615 26.4137 16.4615H24.1044V18.5714Z" fill="#394B4E"/>
<path d="M26.1499 4C23.9506 4 22.1471 5.78022 22.1471 8V12.1538H27.7993C27.9313 12.1538 28.0853 12.1538 28.1952 12.1758C29.4708 12.2418 30.4165 12.9011 30.4165 14.044C30.4165 14.9451 29.7787 15.7143 28.5911 15.8681V15.9121C29.8887 16 30.8784 16.7253 30.8784 17.8462C30.8784 19.0549 29.7787 19.8462 28.3272 19.8462H22.1251V27.978H27.9973C30.1966 27.978 32 26.1978 32 23.978V4H26.1499Z" fill="#394B4E"/>
<path d="M27.2275 14.3077C27.2275 13.7802 26.8536 13.4286 26.4137 13.3626C26.3697 13.3626 26.2598 13.3407 26.1938 13.3407H24.1044V15.2747H26.1938C26.2598 15.2747 26.3917 15.2747 26.4137 15.2528C26.8536 15.1868 27.2275 14.8352 27.2275 14.3077Z" fill="#394B4E"/>
<path d="M4.02474 4C1.82543 4 0.0219932 5.78022 0.0219932 8V17.8681C1.14364 18.4176 2.30928 18.7692 3.47491 18.7692C4.86048 18.7692 5.60825 17.9341 5.60825 16.7912V12.1319H9.03917V16.7692C9.03917 18.5714 7.91752 20.044 4.11271 20.044C1.80344 20.044 0 19.5385 0 19.5385V27.956H5.87216C8.07148 27.956 9.87491 26.1758 9.87491 23.956V4H4.02474Z" fill="#394B4E"/>
<path d="M15.0873 4C12.888 4 11.0845 5.78022 11.0845 8V13.2308C12.0962 12.3736 13.8557 11.8242 16.6928 11.956C18.2103 12.022 19.8378 12.4396 19.8378 12.4396V14.1319C19.0241 13.7143 18.0564 13.3407 16.8027 13.2527C14.6474 13.0989 13.3498 14.1538 13.3498 16C13.3498 17.8681 14.6474 18.9231 16.8027 18.7473C18.0564 18.6593 19.0241 18.2637 19.8378 17.8681V19.5604C19.8378 19.5604 18.2323 19.978 16.6928 20.044C13.8557 20.1758 12.0962 19.6264 11.0845 18.7692V28H16.9567C19.156 28 20.9594 26.2198 20.9594 24V4H15.0873Z" fill="#394B4E"/>
</svg>
