<svg width="48" height="24" viewBox="0 0 48 24" fill="none" xmlns="http://www.w3.org/2000/svg">
<path d="M18.353 21.754C18.4467 21.8357 18.5457 21.9143 18.643 21.9943C16.741 23.2613 14.4567 24 12 24C5.37233 24 0 18.6273 0 12C0 5.37267 5.37233 0 12 0C14.4567 0 16.7407 0.738667 18.643 2.00567C18.5457 2.08533 18.4473 2.16367 18.353 2.24567C15.526 4.70533 13.9047 8.26067 13.9047 12C13.9047 15.7397 15.526 19.2947 18.353 21.754Z" fill="#394B4E"/>
<path d="M26.8327 0C24.376 0 22.092 0.738667 20.1897 2.00533C20.287 2.085 20.3854 2.16367 20.4797 2.24567C23.307 4.70533 24.928 8.26067 24.928 12C24.928 15.7393 23.3067 19.2947 20.48 21.7543C20.386 21.836 20.287 21.9147 20.1897 21.9947C22.092 23.2613 24.3757 24 26.8327 24C33.46 24 38.8327 18.6277 38.8327 12.0003C38.8327 5.37267 33.46 0 26.8327 0Z" fill="#394B4E"/>
<path d="M19.4163 2.57001C19.2617 2.69168 19.1103 2.81701 18.9623 2.94601C16.4337 5.14601 14.833 8.38501 14.833 12C14.833 15.615 16.4337 18.854 18.9623 21.054C19.1103 21.183 19.2617 21.308 19.4163 21.43C19.571 21.3083 19.7223 21.183 19.8703 21.054C22.399 18.854 23.9997 15.615 23.9997 12C23.9997 8.38501 22.399 5.14601 19.8703 2.94601C19.7223 2.81701 19.571 2.69168 19.4163 2.57001Z" fill="#394B4E"/>
</svg>
