<svg width="48" height="24" viewBox="0 0 48 24" fill="none" xmlns="http://www.w3.org/2000/svg">
<path fill-rule="evenodd" clip-rule="evenodd" d="M9.79825 0.949505C10.4279 1.14688 10.8584 1.53996 10.8584 1.99091C10.8584 2.64266 9.96502 3.17014 8.86405 3.17014C7.76134 3.17014 6.8697 2.64266 6.8697 1.99091C6.8697 1.53996 7.29851 1.14688 7.92985 0.949505C7.81921 1.07881 7.7563 1.23537 7.7563 1.40213C7.7563 1.86671 8.2515 2.24274 8.86411 2.24274C9.47498 2.24274 9.97192 1.86665 9.97192 1.40213C9.9718 1.23543 9.90715 1.07887 9.79825 0.949505ZM6.30644 9.8219H11.4216V11.0726H9.5753V11.8588L10.5708 11.282V12.2179L9.5753 12.7947V13.3784L10.5708 12.8016V13.7375L9.5753 14.3161V15.9803H8.15268V15.1414L7.15719 15.7182V14.7823L8.15268 14.2037V13.62L7.15719 14.1968V13.2609L8.15268 12.6841V11.0726H6.30638L6.30644 9.8219ZM10.4602 7.93816L10.5045 7.74078C10.5045 7.74078 9.49708 7.08393 9.18053 6.57007C8.96784 6.57007 8.86405 6.57007 8.86405 6.57007C8.86405 6.57007 8.75858 6.57007 8.54757 6.57007C8.23108 7.08399 7.22365 7.74078 7.22365 7.74078L7.26621 7.93816C6.43748 8.22402 5.70751 8.72431 5.14592 9.37264C5.14424 9.25354 5.15444 9.12759 5.19016 9.0238C5.29395 8.72773 5.94229 8.11855 6.79821 7.67781C7.65245 7.23706 8.42672 6.30456 8.42672 6.30456H8.86405H9.29969C9.29969 6.30456 10.074 7.23706 10.9299 7.67781C11.7858 8.11855 12.4341 8.72773 12.5379 9.0238C12.5737 9.12759 12.5839 9.25354 12.5822 9.37264C12.0189 8.72431 11.2906 8.22402 10.4602 7.93816ZM13.6968 11.6852C13.7512 11.9796 13.7802 12.2807 13.7802 12.5904C13.7802 15.3046 11.5782 17.5065 8.86405 17.5065C6.14819 17.5065 3.94794 15.3046 3.94794 12.5904C3.94794 12.2807 3.9752 11.9796 4.03133 11.6852C4.0177 11.6971 4.00581 11.7073 3.99729 11.7158C3.89349 11.8162 3.82542 13.0175 3.51914 13.1894C3.21286 13.3596 2.4216 13.5723 2.40797 13.9177C2.39434 14.2649 2.65302 14.5933 2.80447 14.6103C2.95419 14.6273 3.06651 14.566 3.13458 14.4163C3.20098 14.2665 3.1278 14.1781 3.06993 14.2683C3.0138 14.3584 2.85892 14.3857 2.78064 14.3295C2.70236 14.2733 2.74318 14.0624 2.87765 13.9092C3.0138 13.756 3.21118 13.7237 3.31498 13.8003C3.41877 13.8769 3.5515 13.8871 3.64341 13.8105C3.73531 13.7339 3.81185 13.5893 3.79486 13.8955C3.75404 14.7515 2.92021 15.49 2.36205 15.7639C1.80388 16.0378 1.54863 16.254 1.2645 16.4803C0.980317 16.705 0.958226 16.8002 0.936074 16.6726C0.81013 16.1195 1.19643 15.7026 1.71035 15.5104C2.22254 15.3164 2.38252 14.8655 2.31612 14.8212C2.24805 14.7753 1.96218 14.9318 1.62013 15.1768C1.27807 15.4219 1.02114 14.9948 0.958166 14.7668C0.895193 14.5388 1.18448 14.4826 1.33594 14.4724C1.4874 14.4605 1.68136 14.3397 1.65753 13.9857C1.63537 13.6318 1.31379 13.6879 1.18274 13.8138C1.05169 13.9398 0.886669 14.1031 0.903658 13.9364C0.922387 13.7696 0.980257 12.8695 0.930912 12.5223C0.881566 12.1751 1.42611 11.7089 1.60476 11.5319C1.78173 11.3533 1.8498 11.2052 1.78341 11.1303C1.71876 11.0571 1.02786 10.8819 0.813491 10.642C0.600802 10.4037 0.639942 9.92726 0.818594 9.6567C0.995565 9.38614 1.07895 9.23301 1.04491 9.1411C1.01255 9.04919 0.995565 8.98965 1.05001 8.83651C1.10446 8.68337 1.60818 8.56763 1.60986 8.47236C1.61328 8.37878 1.44652 8.30392 1.21678 8.41624C0.987041 8.52855 0.925809 8.46726 0.936014 8.32607C0.944539 8.18482 1.19637 7.85129 1.55031 7.75945C1.90257 7.66586 2.43006 7.31702 2.66832 7.13495C2.90659 6.95288 3.53277 7.21833 3.99735 7.16221C4.46019 7.10608 4.79204 7.00055 4.88562 7.09245C4.98089 7.18436 4.53 7.51104 4.53 7.51104C4.53 7.51104 4.56914 7.52803 4.62017 7.57059C4.72906 7.66076 4.89583 7.86666 4.89583 8.28189C4.89583 9.11397 4.21514 9.14974 4.1386 9.21782C4.062 9.28589 4.08073 9.64493 4.00419 9.85762C3.92759 10.0686 3.57539 10.3205 3.60259 10.4158C3.62984 10.5094 4.02118 10.6898 4.02628 10.8293C4.03139 10.9688 3.72001 11.3023 3.80165 11.3738C3.88161 11.447 4.07563 11.3465 4.2475 10.865C4.41768 10.3834 4.71208 9.88145 4.81413 9.71127C4.9145 9.5394 4.81923 9.17526 5.01661 8.62052C5.21399 8.06746 5.71939 7.49573 5.96276 7.30004C5.35188 7.38 5.22084 7.08393 5.22084 6.89843C5.22084 6.71468 5.33826 6.20587 6.05803 5.83662C6.77954 5.46738 7.64741 5.54223 8.02176 5.53545C8.39611 5.52867 8.36892 5.22575 8.42504 5.21723C8.48117 5.20871 8.68198 5.2802 8.86405 5.2802C9.04612 5.2802 9.24693 5.20871 9.30306 5.21723C9.35918 5.22575 9.33199 5.52861 9.70634 5.53545C10.079 5.54223 10.9486 5.46738 11.6683 5.83662C12.3882 6.20587 12.5055 6.71468 12.5055 6.89843C12.5055 7.08393 12.3762 7.38 11.7653 7.30004C12.0086 7.49573 12.5123 8.06746 12.7114 8.62052C12.9088 9.17526 12.8118 9.5394 12.9139 9.71127C13.0143 9.88145 13.3087 10.3834 13.4805 10.865C13.6524 11.3465 13.8447 11.4469 13.9264 11.3738C14.0081 11.3023 13.6967 10.9688 13.7018 10.8293C13.7052 10.6898 14.0965 10.5094 14.1238 10.4158C14.151 10.3205 13.8004 10.0686 13.7239 9.85762C13.6473 9.64493 13.6644 9.28589 13.5878 9.21782C13.5112 9.14974 12.8322 9.11403 12.8322 8.28189C12.8322 7.86666 12.999 7.66082 13.1062 7.57059C13.159 7.52803 13.1964 7.51104 13.1964 7.51104C13.1964 7.51104 12.7471 7.1843 12.8407 7.09245C12.936 7.00055 13.2662 7.10608 13.7307 7.16221C14.1935 7.21833 14.8198 6.95288 15.058 7.13495C15.2979 7.31702 15.8237 7.66586 16.1777 7.75945C16.5299 7.85135 16.7834 8.18488 16.792 8.32607C16.8005 8.46726 16.7409 8.52855 16.5112 8.41624C16.2815 8.30392 16.1147 8.37878 16.1164 8.47236C16.1181 8.56763 16.6235 8.68337 16.6763 8.83651C16.7307 8.98965 16.7154 9.04919 16.6814 9.1411C16.6474 9.23301 16.7307 9.38614 16.9094 9.6567C17.0864 9.92726 17.1272 10.4037 16.9128 10.642C16.7001 10.8819 16.0092 11.0572 15.9428 11.1303C15.8782 11.2052 15.9463 11.3532 16.1232 11.5319C16.3019 11.7089 16.8464 12.1751 16.7971 12.5223C16.746 12.8695 16.8056 13.7696 16.8226 13.9364C16.8413 14.1031 16.6745 13.9398 16.5435 13.8138C16.4142 13.6879 16.0909 13.6318 16.0687 13.9857C16.0466 14.3397 16.2406 14.4605 16.3903 14.4724C16.5418 14.4826 16.8327 14.5387 16.7698 14.7668C16.7068 14.9948 16.4499 15.4219 16.1078 15.1768C15.7657 14.9318 15.4799 14.7752 15.4118 14.8212C15.3437 14.8655 15.5037 15.3164 16.0176 15.5104C16.5298 15.7026 16.9177 16.1195 16.7918 16.6726C16.7698 16.8002 16.7459 16.705 16.4634 16.4803C16.1792 16.254 15.9223 16.0379 15.3641 15.7639C14.806 15.49 13.9739 14.7515 13.9331 13.8955C13.9143 13.5893 13.9909 13.7339 14.0828 13.8105C14.1764 13.8871 14.3091 13.8769 14.4129 13.8003C14.515 13.7237 14.7141 13.756 14.8485 13.9092C14.9847 14.0623 15.0255 14.2733 14.9472 14.3295C14.8673 14.3856 14.7141 14.3584 14.6562 14.2683C14.5984 14.1781 14.5269 14.2666 14.5933 14.4163C14.6597 14.566 14.7719 14.6273 14.9234 14.6103C15.0731 14.5933 15.3335 14.2649 15.3199 13.9177C15.3063 13.5723 14.5133 13.3595 14.207 13.1894C13.9007 13.0175 13.8343 11.8162 13.7305 11.7158C13.7205 11.7073 13.7103 11.6971 13.6968 11.6852ZM8.86405 8.51162C11.1153 8.51162 12.9412 10.3375 12.9412 12.5904C12.9412 14.8417 11.1153 16.6676 8.86405 16.6676C6.61103 16.6676 4.78519 14.8417 4.78519 12.5904C4.78513 10.3375 6.61103 8.51162 8.86405 8.51162ZM8.86405 3.3267C9.11588 3.3267 9.33199 3.34879 9.50386 3.52408C9.70977 3.31649 10.2815 3.17692 10.5198 3.17692C10.7597 3.17692 10.9894 3.34879 11.2362 3.34879C11.4846 3.34879 11.9526 3.34879 12.2095 3.34879C12.4664 3.34879 12.8034 3.44406 12.8034 3.63297C12.8034 3.82189 12.9361 3.85761 13.0127 3.87802C13.0893 3.89843 13.3343 3.9614 13.3343 4.30855C13.3343 4.65397 13.3105 5.01643 13.5164 5.22912C13.724 5.44012 14.1086 5.73793 14.4676 5.73793C14.825 5.73793 14.9662 5.37889 14.9662 4.73056C14.9662 4.08224 14.6208 2.96088 13.6032 2.39929C13.7818 2.60178 14.0082 2.91831 14.0116 3.06461C14.0167 3.21096 13.8227 3.42023 13.8227 3.42023C13.8227 3.42023 13.108 2.63065 12.9804 2.50477C12.8545 2.37882 12.8647 2.2614 12.9311 2.17124C12.9992 2.08107 13.1949 1.88027 13.3871 1.97722C13.5777 2.07423 14.3656 2.58809 14.8693 3.14115C15.3747 3.69589 15.8341 4.31696 15.8341 5.53197C16.2833 5.89269 16.5846 6.6346 16.5846 7.1128C16.5846 7.58926 16.3293 7.61309 16.0536 7.41908C15.7797 7.22506 15.2573 6.77075 15.3151 6.70268C15.3747 6.6346 15.6623 6.58526 15.339 6.46958C15.014 6.35216 13.8126 6.4781 13.0775 6.2671C12.3441 6.05441 11.335 5.32949 10.5335 5.25295C9.73204 5.17635 9.66906 5.09639 9.72861 4.96534C9.78648 4.8343 9.85966 4.65054 9.8222 4.43612C9.77286 4.65733 9.34406 4.91768 8.86417 4.91768C8.38428 4.91768 7.9538 4.65733 7.90446 4.43612C7.86874 4.65054 7.94018 4.8343 7.99973 4.96534C8.0576 5.09639 7.99462 5.17635 7.19315 5.25295C6.39168 5.32955 5.38256 6.05441 4.64916 6.2671C3.91577 6.4781 2.71269 6.35216 2.38936 6.46958C2.06435 6.58532 2.35364 6.63466 2.41151 6.70268C2.47106 6.77075 1.94867 7.22506 1.67301 7.41908C1.39903 7.61309 1.1421 7.58926 1.1421 7.1128C1.1421 6.63466 1.44327 5.89275 1.89423 5.53197C1.89423 4.31702 2.3537 3.69589 2.85736 3.14115C3.36108 2.58809 4.14893 2.07423 4.34121 1.97722C4.5318 1.88021 4.7275 2.08101 4.79558 2.17124C4.86365 2.2614 4.87218 2.37882 4.74623 2.50477C4.62029 2.63071 3.90394 3.42023 3.90394 3.42023C3.90394 3.42023 3.71166 3.2109 3.71508 3.06461C3.72019 2.91825 3.94482 2.60178 4.12515 2.39929C3.10757 2.96082 2.76041 4.08224 2.76041 4.73056C2.76041 5.37889 2.90335 5.73793 3.26071 5.73793C3.61807 5.73793 4.00431 5.44012 4.21022 5.22912C4.4178 5.01643 4.39229 4.65397 4.39229 4.30855C4.39229 3.9614 4.63902 3.89849 4.71562 3.87802C4.79222 3.85761 4.92495 3.82189 4.92495 3.63297C4.92495 3.44406 5.2619 3.34879 5.51883 3.34879C5.77576 3.34879 6.24376 3.34879 6.49049 3.34879C6.73896 3.34879 6.96864 3.17692 7.2069 3.17692C7.4451 3.17692 8.01689 3.31643 8.22448 3.52408C8.39605 3.34885 8.61216 3.3267 8.86405 3.3267ZM11.1136 1.11627C11.5067 1.19965 12.3575 1.51787 12.7387 1.71183C13.1182 1.9041 12.7524 1.8616 12.6094 2.013C12.4682 2.16446 12.5226 2.36352 12.766 2.62561C13.0076 2.88596 13.3275 3.23479 13.3037 3.28414C13.2782 3.33516 12.9446 3.40834 12.7404 3.13442C12.5362 2.85876 12.4171 2.69032 12.0478 2.84514C11.6786 3.0017 11.129 3.03573 10.9077 3.0017C10.6882 2.96766 10.5946 2.95577 10.9537 2.76344C11.311 2.56942 11.4301 2.47757 11.4642 2.24442C11.4982 2.013 11.522 1.89216 11.6309 1.80542C11.7381 1.72035 11.7977 1.63187 11.5135 1.4923C11.2293 1.35273 10.9707 1.26088 10.986 1.18092C11.003 1.09928 11.1136 1.11627 11.1136 1.11627ZM14.6361 4.16904C14.6088 4.14863 14.4966 4.29156 14.4608 4.27794C14.4251 4.26431 14.4131 3.85935 14.1136 3.71978C14.0456 3.86271 13.7222 4.37489 13.6525 4.45148C13.5827 4.52808 14.0796 4.3681 14.1426 4.43276C14.2055 4.49741 14.0507 4.55696 13.9316 4.71694C13.8125 4.87692 13.7393 5.13385 13.923 5.31934C14.1051 5.50651 14.3246 5.28873 14.4676 5.06409C14.6088 4.83778 14.8249 4.31708 14.6361 4.16904ZM9.45283 5.60863C9.56173 5.60694 9.66042 5.595 9.66726 5.75324C9.67405 5.91148 9.69788 6.19056 10.0995 6.39988C10.4994 6.60921 10.6372 6.61941 10.9929 6.61941C11.3485 6.61941 11.4523 6.47138 11.4489 6.35738C11.4472 6.24164 11.5255 6.28252 11.6004 6.40331C11.6752 6.52583 11.5902 6.79806 11.42 6.86278C11.2515 6.92917 10.804 6.97509 10.4636 6.79812C10.1233 6.61947 9.49197 6.18552 9.36945 5.90644C9.24861 5.62736 9.36945 5.61541 9.45283 5.60863ZM16.2901 9.45266C16.4263 9.57518 16.7274 10.0227 16.7274 10.2882C16.7274 10.5536 16.1284 10.6523 15.9753 10.6353C15.8222 10.6166 15.9481 10.4498 16.0179 10.2406C16.0877 10.0313 16.1285 9.62795 16.1166 9.49864C16.1063 9.36753 16.1948 9.36585 16.2901 9.45266ZM15.2827 9.78787C15.424 9.89676 15.424 9.97162 15.3082 10.1146C15.1942 10.2592 14.9645 10.6319 14.9918 10.8889C15.019 11.1458 15.1126 11.2343 15.1891 11.2343C15.2657 11.2343 15.2215 10.8021 15.3202 10.8038C15.4189 10.8054 15.7047 10.8804 15.7218 11.0131C15.7371 11.1458 15.3389 11.0914 15.3355 11.282C15.3338 11.4708 15.4988 11.6206 15.3916 11.8299C15.2862 12.0392 15.0598 12.3421 15.0104 12.5446C14.9594 12.7471 14.8471 12.7301 14.8113 12.6774C14.7756 12.6246 14.83 12.5446 14.9508 12.3609C15.0733 12.1771 15.2231 11.9287 15.0104 11.7058C14.7959 11.4829 14.3757 11.2123 14.3757 11.003C14.3757 10.7937 14.9236 10.5418 14.8845 10.3615C14.8437 10.1811 14.4914 9.82202 14.5016 9.63653C14.5101 9.45266 14.7892 9.41178 15.2827 9.78787ZM14.0626 7.66082C13.9843 7.55871 13.906 7.6625 13.8618 7.72721C13.8159 7.79354 13.7274 7.79528 13.6457 7.67276C13.564 7.55192 13.4023 7.53836 13.302 7.70338C13.1998 7.86672 13.2492 8.04711 13.3904 8.21898C13.5334 8.38916 13.7495 8.60185 13.9333 8.72437C14.1188 8.84857 14.0524 8.67335 14.0065 8.51168C13.9588 8.34834 13.8601 8.12203 13.9826 8.01313C14.1068 7.90586 14.2141 7.85988 14.0626 7.66082ZM13.2441 8.27679C13.3207 8.3738 13.5674 8.64435 13.6831 8.74304C13.7971 8.84173 13.7682 9.00849 13.5673 9.00849C13.3665 9.00849 13.1692 8.70048 13.1504 8.39252C13.1335 8.08283 13.2441 8.27679 13.2441 8.27679ZM6.61445 1.11627C6.21969 1.19965 5.36881 1.51787 4.98936 1.71183C4.60816 1.9041 4.97573 1.8616 5.11698 2.013C5.25992 2.16446 5.20547 2.36352 4.9621 2.62561C4.71874 2.88596 4.39883 3.23479 4.42441 3.28414C4.44824 3.33516 4.78177 3.40834 4.98594 3.13442C5.19184 2.85876 5.31094 2.69032 5.68019 2.84514C6.04944 3.0017 6.59909 3.03573 6.81862 3.0017C7.03983 2.96766 7.13174 2.95577 6.77438 2.76344C6.41701 2.56942 6.29623 2.47757 6.26387 2.24442C6.22984 2.013 6.20432 1.89216 6.09711 1.80542C5.98821 1.72035 5.93034 1.63187 6.21453 1.4923C6.49703 1.35279 6.75565 1.26088 6.74034 1.18092C6.72503 1.09928 6.61445 1.11627 6.61445 1.11627ZM3.09202 4.16904C3.11754 4.14863 3.23153 4.29156 3.26731 4.27794C3.30303 4.26431 3.31498 3.85935 3.61273 3.71978C3.68081 3.86271 4.00581 4.37489 4.07557 4.45148C4.14532 4.52808 3.64677 4.3681 3.5838 4.43276C3.52082 4.49741 3.67738 4.55696 3.79648 4.71694C3.91559 4.87692 3.98708 5.13385 3.80501 5.31934C3.62294 5.50651 3.40172 5.28873 3.26047 5.06409C3.11754 4.83778 2.90311 4.31708 3.09202 4.16904ZM8.27527 5.60863C8.16637 5.60694 8.06768 5.595 8.06084 5.75324C8.05405 5.91148 8.02848 6.19056 7.62862 6.39988C7.22701 6.60921 7.09092 6.61941 6.73524 6.61941C6.37961 6.61941 6.27576 6.47138 6.2775 6.35738C6.27918 6.24164 6.2009 6.28252 6.12604 6.40331C6.05286 6.52583 6.13793 6.79806 6.30644 6.86278C6.47488 6.92917 6.92415 6.97509 7.26447 6.79812C7.6031 6.61947 8.23613 6.18552 8.35691 5.90644C8.47943 5.62736 8.35691 5.61541 8.27527 5.60863ZM1.43625 9.45266C1.3001 9.57518 1.00061 10.0227 1.00061 10.2882C1.00061 10.5536 1.5996 10.6523 1.75273 10.6353C1.90419 10.6166 1.77825 10.4498 1.70849 10.2406C1.63874 10.0313 1.5996 9.62795 1.6098 9.49864C1.62175 9.36753 1.53326 9.36585 1.43625 9.45266ZM2.44537 9.78787C2.30244 9.89676 2.30412 9.97162 2.41812 10.1146C2.53386 10.2592 2.76185 10.6319 2.73634 10.8889C2.70909 11.1458 2.61382 11.2343 2.53722 11.2343C2.46062 11.2343 2.5066 10.8021 2.40617 10.8038C2.30748 10.8054 2.02161 10.8804 2.0063 11.0131C1.991 11.1458 2.38918 11.0914 2.39086 11.282C2.39428 11.4708 2.2292 11.6206 2.33473 11.8299C2.44027 12.0392 2.66826 12.3421 2.71761 12.5446C2.76696 12.7471 2.87927 12.7301 2.91499 12.6774C2.95245 12.6246 2.898 12.5446 2.77548 12.3609C2.65464 12.1771 2.50324 11.9287 2.71761 11.7058C2.93204 11.4829 3.35232 11.2123 3.35232 11.003C3.35232 10.7937 2.80267 10.5418 2.84349 10.3615C2.88432 10.1811 3.2349 9.82202 3.22637 9.63653C3.21791 9.45266 2.93714 9.41178 2.44537 9.78787ZM3.66544 7.66082C3.74204 7.55871 3.82032 7.6625 3.86624 7.72721C3.91048 7.79354 4.00065 7.79528 4.08235 7.67276C4.16231 7.55192 4.32572 7.53836 4.42609 7.70338C4.5282 7.86672 4.47711 8.04711 4.33592 8.21898C4.19467 8.38916 3.97856 8.60185 3.79306 8.72437C3.60931 8.84857 3.67396 8.67335 3.72157 8.51168C3.76923 8.34834 3.86792 8.12203 3.74372 8.01313C3.61951 7.90586 3.5123 7.85988 3.66544 7.66082ZM4.48396 8.27679C4.40736 8.3738 4.15895 8.64435 4.04495 8.74304C3.92921 8.84173 3.95989 9.00849 4.15895 9.00849C4.35975 9.00849 4.55714 8.70048 4.57587 8.39252C4.59454 8.08283 4.48396 8.27679 4.48396 8.27679ZM8.86405 0.811676C9.33373 0.811676 9.71487 1.06182 9.71487 1.36984C9.71487 1.67785 9.33367 1.928 8.86405 1.928C8.39443 1.928 8.01323 1.67785 8.01323 1.36984C8.01323 1.06182 8.39437 0.811676 8.86405 0.811676ZM5.87421 4.03632C5.82145 4.04652 5.70066 4.15716 5.73128 4.35454C5.76021 4.55366 6.66722 4.53829 7.06541 4.50767C7.46359 4.47874 7.78524 4.30177 7.8039 4.18435C7.82263 4.06693 7.44828 3.60068 6.98881 3.60068C6.52933 3.60068 6.25031 4.12816 6.16692 4.15542C6.08354 4.18267 6.02225 4.00396 5.87421 4.03632ZM7.11301 3.89164C7.37168 3.89164 7.42271 3.9716 7.42271 4.03458C7.42271 4.09755 7.3257 4.26941 7.08576 4.24726C6.84581 4.22511 6.81352 4.16046 6.81352 4.08218C6.81352 4.0057 6.95309 3.89164 7.11301 3.89164ZM11.8403 4.03632C11.893 4.04652 12.0121 4.15716 11.9832 4.35454C11.9543 4.55366 11.0473 4.53829 10.6491 4.50767C10.2509 4.47874 9.92756 4.30177 9.91057 4.18435C9.89184 4.06693 10.2662 3.60068 10.7257 3.60068C11.1851 3.60068 11.4642 4.12816 11.5475 4.15542C11.6309 4.18267 11.6922 4.00396 11.8403 4.03632ZM10.6014 3.89164C10.3427 3.89164 10.2917 3.9716 10.2917 4.03458C10.2917 4.09755 10.3887 4.26941 10.6287 4.24726C10.8686 4.22517 10.9009 4.16046 10.9009 4.08218C10.9009 4.0057 10.7614 3.89164 10.6014 3.89164Z" fill="#394B4E"/>
<path d="M8.50661 0H9.22644C11.5662 0 13.6933 0.956341 15.235 2.49804C16.7767 4.03973 17.7331 6.16678 17.7331 8.50651V15.4935C17.7331 17.8332 16.7767 19.9603 15.235 21.502C13.6933 23.0437 11.5662 24 9.22644 24H8.50661C6.16685 24 4.03978 23.0437 2.49806 21.502C0.956352 19.9603 0 17.8332 0 15.4935V8.50651C0 6.16678 0.956352 4.03973 2.49806 2.49804C4.03972 0.956341 6.16685 0 8.50661 0ZM9.22644 0.29949H8.50661C6.25023 0.29949 4.19802 1.22347 2.71075 2.71072C1.22349 4.19797 0.299494 6.25016 0.299494 8.50651V15.4935C0.299494 17.7498 1.22349 19.802 2.71075 21.2893C4.19802 22.7765 6.25023 23.7005 8.50661 23.7005H9.22644C11.4828 23.7005 13.535 22.7765 15.0223 21.2893C16.5096 19.802 17.4336 17.7498 17.4336 15.4935V8.50651C17.4336 6.25016 16.5096 4.19797 15.0223 2.71072C13.535 1.22347 11.4828 0.29949 9.22644 0.29949Z" fill="#394B4E"/>
</svg>
