<svg width="64" height="32" viewBox="0 0 64 32" fill="none" xmlns="http://www.w3.org/2000/svg">
    <path d="M38.7717 12.4584C38.3791 12.3338 37.8677 12.7728 37.6446 13.445C37.4098 14.1173 37.5533 14.7635 37.9503 14.8852C38.3458 15.0112 38.8558 14.5693 39.0803 13.8985C39.3107 13.2277 39.1702 12.5815 38.7717 12.4584Z" fill="#394B4E"/>
    <path d="M35.0439 9.87373C34.8628 9.75493 34.573 9.69843 34.1761 9.69843H32.962L32.5244 11.8238H33.9558C34.3282 11.8238 34.6223 11.7369 34.8411 11.5645C35.0555 11.3921 35.1975 11.127 35.2757 10.7677C35.2888 10.7025 35.2946 10.6416 35.3061 10.5865C35.309 10.5344 35.3177 10.4837 35.3177 10.433C35.3177 10.1765 35.2279 9.99109 35.0439 9.87373Z" fill="#394B4E"/>
    <path d="M33.4966 22.7551L33.2112 23.7664H34.3282L34.6136 22.7551H33.4966Z" fill="#394B4E"/>
    <path d="M34.608 18.8462L34.2269 20.1777C34.2269 20.1777 34.8774 19.927 35.441 19.856C35.5656 19.3909 35.7265 18.8462 35.7265 18.8462H34.608Z" fill="#394B4E"/>
    <path d="M34.0501 20.8035L33.6661 22.1958C33.6661 22.1958 34.3905 21.8394 34.8831 21.809C35.0295 21.2729 35.1715 20.8035 35.1715 20.8035H34.0501Z" fill="#394B4E"/>
    <path d="M23.6287 12.3309C23.4882 12.1788 23.2897 12.102 23.0318 12.102C22.6914 12.102 22.4146 12.2222 22.1973 12.4613C21.9785 12.7018 21.8235 13.0626 21.725 13.545C21.712 13.6189 21.7004 13.6942 21.6917 13.7652C21.6844 13.8391 21.6815 13.9087 21.683 13.9724C21.683 14.2462 21.754 14.4578 21.896 14.607C22.035 14.7562 22.2335 14.8301 22.4943 14.8301C22.8362 14.8301 23.113 14.7113 23.3303 14.4751C23.5476 14.2404 23.7012 13.884 23.7968 13.4117C23.8113 13.3378 23.8229 13.261 23.8301 13.1828C23.8359 13.1075 23.8403 13.0365 23.8403 12.9713C23.8403 12.6975 23.7707 12.483 23.6287 12.3309Z" fill="#394B4E"/>
    <path d="M49.8277 0.00724425L37.491 0.00434613C37.4896 0.00434613 37.4881 0.00434613 37.4881 0.00434613C37.4751 0.00434613 37.4664 0.00579554 37.4577 0.00579554C35.7626 0.0579529 33.6517 1.41694 33.2677 3.09322L32.171 7.94241H31.1539L32.2506 3.09322C32.636 1.41694 34.747 0.0579529 36.4421 0.00579554C36.4508 0.00579554 36.4609 0.00434613 36.4711 0.00434613H31.5393L22.7681 0C22.7464 0 22.7247 0.00144861 22.7015 0.00289742C21.002 0.037669 18.8636 1.40535 18.4797 3.09467L17.3829 7.94386H16.1978L17.2931 3.09467C17.677 1.4068 19.8169 0.037669 21.5164 0.00289742L10.1953 0C8.48572 0 6.29511 1.38362 5.90393 3.09467L0.0680944 28.9097C0.031874 29.0661 0.0115905 29.2212 0 29.3718V29.85C0.115905 31.0814 1.05764 31.9812 2.41083 32H13.8014C12.1193 31.9739 11.0719 30.5975 11.4572 28.9053L12.8119 22.913H13.9999L12.6453 28.9053C12.2599 30.599 13.3074 31.9739 14.988 32H28.7662C27.0827 31.9739 26.0381 30.5975 26.4221 28.9053L26.8755 26.8973H27.8926L27.4391 28.9053C27.0552 30.599 28.1012 31.9739 29.7833 32H42.743C44.4019 31.9174 46.0101 30.5744 46.3882 28.9169L52.2226 3.10192C52.6109 1.39376 51.5358 0.00579543 49.8277 0.00724425ZM10.8864 15.1648C10.2707 15.6197 9.47381 15.8486 8.49876 15.8486C7.58021 15.8486 6.90796 15.6153 6.47911 15.1474C6.1821 14.8156 6.03287 14.3925 6.03287 13.8826C6.03287 13.671 6.0575 13.4436 6.10821 13.2002L7.14701 8.19016H8.71608L7.69032 13.1422C7.65844 13.2813 7.64685 13.4088 7.6483 13.5232C7.64685 13.7768 7.70915 13.984 7.83665 14.1462C8.02209 14.3882 8.32345 14.5084 8.74505 14.5084C9.22751 14.5084 9.62449 14.3911 9.93308 14.152C10.2417 13.9159 10.4431 13.5812 10.5329 13.1437L11.5616 8.19161H13.1219L12.0831 13.2016C11.9093 14.0521 11.5079 14.7026 10.8864 15.1648ZM17.1569 12.6569L16.5484 15.7037H15.4082L15.9602 12.9423C16.0167 12.6569 16.0007 12.4439 15.9123 12.3077C15.8269 12.1701 15.6617 12.102 15.4226 12.102C15.13 12.102 14.8837 12.1932 14.6823 12.3743C14.4809 12.5569 14.3476 12.8104 14.2824 13.1335L13.7739 15.7023H12.6337L13.5276 11.2298H14.6359L14.5099 11.8745L14.6678 11.6905C15.0286 11.3066 15.4647 11.1153 15.979 11.1153C16.4455 11.1153 16.7816 11.2515 16.9932 11.5239C17.2003 11.7977 17.2568 12.173 17.1569 12.6569ZM37.3693 11.7093C38.3255 11.2645 38.8225 11.5282 39.3658 11.9527L39.8845 11.5949L41.1145 11.4862L40.1873 15.7023L38.7703 15.666L38.5617 15.4241C34.973 16.954 36.0639 12.3135 37.3693 11.7093ZM39.9062 18.455L39.6512 19.333H38.6153C38.2198 19.3547 38.0184 19.207 37.9981 18.8795L37.9503 17.7408H39.3614L39.4208 18.2594C39.4107 18.3927 39.4918 18.455 39.6584 18.455H39.9062ZM31.7131 8.45674H34.9339C35.5511 8.45674 36.0277 8.59872 36.3595 8.874C36.6884 9.15217 36.8521 9.55204 36.8521 10.0736V10.0896C36.8521 10.1881 36.8448 10.3011 36.8347 10.4213C36.8188 10.5401 36.8014 10.6618 36.7724 10.7879C36.6304 11.4775 36.3015 12.031 35.793 12.4526C35.2801 12.8713 34.676 13.0828 33.982 13.0828H32.255L31.7218 15.7023H30.2281L31.7131 8.45674ZM26.2366 11.2312H27.3464L27.2204 11.8759L27.3754 11.6919C27.7347 11.308 28.1737 11.1168 28.6866 11.1168C29.1502 11.1168 29.4878 11.253 29.6993 11.5253C29.9036 11.7977 29.963 12.1744 29.863 12.6569L29.2545 15.7037H28.1143L28.6663 12.9423C28.7228 12.6569 28.7097 12.4439 28.6214 12.3077C28.5301 12.1701 28.3693 12.102 28.1317 12.102C27.839 12.102 27.5927 12.1932 27.3899 12.3743C27.1885 12.5569 27.0552 12.8104 26.9914 13.1335L26.4815 15.7023H25.3427L26.2366 11.2312ZM25.8831 18.329L25.6556 19.1693H23.5288C23.2839 19.5373 22.9826 19.7097 22.6189 19.688H21.5106L21.7525 18.81H21.967C22.1654 18.81 22.2973 18.7448 22.3596 18.6144L22.9159 17.7799H24.4068L24.0953 18.329H25.8831ZM18.9375 15.7008H17.7118L18.6723 11.2312H19.9009L18.9375 15.7008ZM20.0661 10.6879H18.8274L19.0577 9.6013H20.2979L20.0661 10.6879ZM20.5181 13.8116C20.5312 13.6971 20.5471 13.5884 20.5674 13.4856C20.7152 12.7583 21.0238 12.1816 21.5019 11.7571C21.9785 11.3297 22.5552 11.1153 23.2289 11.1153C23.7823 11.1153 24.2199 11.2703 24.54 11.5789C24.8602 11.889 25.0211 12.3091 25.0211 12.8409C25.0211 12.9321 25.0138 13.0379 25.0022 13.1509C24.9863 13.2668 24.9703 13.3769 24.9501 13.4856C24.8081 14.1998 24.4995 14.7707 24.0199 15.1879C23.5418 15.6095 22.9681 15.8182 22.2987 15.8182C21.7453 15.8182 21.3092 15.666 20.989 15.3632C20.6659 15.0546 20.5036 14.6417 20.5022 14.1158C20.5022 14.0231 20.508 13.9217 20.5181 13.8116ZM24.1213 25.163H21.7236C21.2672 25.163 21.1122 24.9022 21.2541 24.3807L21.7091 22.7203H20.7297L20.9774 21.8047H21.9583L22.1973 20.9267H21.2614L21.5077 20.0154H25.4253L25.1761 20.9267H23.6012L23.3607 21.8076H24.8936L24.6444 22.7203H23.1101L22.7537 24.0199C22.6667 24.2358 22.7826 24.3343 23.1014 24.3126H24.3503L24.1213 25.163ZM30.4382 22.5537C30.3179 22.9898 29.9992 23.2158 29.4834 23.239H28.8025L28.7996 24.1836C28.7865 24.3314 28.9242 24.4097 29.2067 24.4097H29.8442L29.6341 25.1601H28.1012C27.6738 25.1761 27.4609 24.9732 27.4667 24.54L27.5623 22.0017H28.8416L28.8155 22.5537H29.156C29.3284 22.5537 29.4139 22.4972 29.4139 22.39L29.5153 22.0321H30.5758L30.4382 22.5537ZM29.6239 21.7699H26.8147L26.1569 24.1807C26.1193 24.3082 26.1714 24.3763 26.3148 24.3763H26.8683L26.664 25.1254H25.2587C24.7183 25.1254 24.4951 24.966 24.5835 24.6371L26.4438 17.7726H27.755L27.6956 18.3072C27.6956 18.3072 28.4359 17.7523 29.1053 17.7523H31.5856L30.6381 21.1846C30.5599 21.5787 30.2223 21.7714 29.6239 21.7699ZM35.6307 24.7414L35.509 25.1645H34.0588L34.1805 24.7414H31.3162L31.5929 23.7649H31.8798L33.2793 18.8448H32.991L33.2866 17.8031H34.7846L34.7194 18.187C34.7194 18.187 35.483 17.8031 36.0364 17.8031C36.5884 17.8031 37.888 17.8031 37.888 17.8031L37.5939 18.8448H37.3041L35.9046 23.7649H36.1958L35.9219 24.7414H35.6307ZM41.8375 20.5674H40.3857L40.1351 21.4454H41.5868L41.3144 22.3871H39.699L39.3339 22.9391H40.1206L40.3046 24.0489C40.3264 24.159 40.4234 24.2112 40.59 24.2112H40.8363L40.577 25.1239H39.7063C39.2571 25.1471 39.0253 24.9979 39.005 24.669L38.7935 23.6606L38.0749 24.7371C37.9068 25.0413 37.6417 25.1833 37.2911 25.1601H35.9611L36.2233 24.2474H36.6348C36.8043 24.2474 36.9506 24.1706 37.0767 24.0199L38.2024 22.3915H36.7478L37.0201 21.4497H38.595L38.8471 20.5732H37.2693L37.5403 19.6286H42.104L41.8375 20.5674ZM43.5471 16.5643C43.0777 17.5698 42.6271 18.1551 42.3619 18.4275C42.0954 18.6984 41.5723 19.3243 40.3075 19.2779L40.4176 18.5115C41.4796 18.1855 42.0548 16.7106 42.3837 16.0558L41.9925 11.2428L42.8111 11.2312H43.4993L43.5731 14.2506L44.8684 11.2312H46.1781L43.5471 16.5643Z" fill="#394B4E"/>
    <path d="M27.2435 20.2081L27.0566 20.8905H29.056C29.2197 20.9136 29.3124 20.8484 29.324 20.6949L29.4602 20.2081H27.2435Z" fill="#394B4E"/>
    <path d="M27.6493 18.7433L27.3842 19.6691C27.3842 19.6691 27.7522 19.404 28.3665 19.3939C28.9822 19.3852 29.6834 19.3939 29.6834 19.3939L29.8616 18.7433H27.6493Z" fill="#394B4E"/>
</svg>
