<svg width="48" height="24" viewBox="0 0 48 24" fill="none" xmlns="http://www.w3.org/2000/svg">
<path d="M10.114 14.4795L8.48069 5.80297C8.28977 4.83418 7.53319 4.2744 6.69217 4.2744H0.0927736L0 4.70984C1.35503 5.00429 2.89486 5.47914 3.8262 5.98483C4.39724 6.2952 4.5605 6.56468 4.74848 7.30192L7.84062 19.2676H11.9409L18.2249 4.2744H14.1502L10.114 14.4795Z" fill="#394B4E"/>
<path d="M27.9102 16.3673C25.9596 16.3979 24.8281 15.8408 23.9259 15.4203L23.2231 18.7054C24.129 19.1219 25.8018 19.4835 27.5369 19.5021C31.6108 19.5021 34.2766 17.4889 34.29 14.3722C34.3067 10.4151 28.8173 10.197 28.8555 8.4293C28.8667 7.89106 29.3795 7.31953 30.5003 7.17292C31.0569 7.10047 32.5872 7.04465 34.325 7.84431L35.0055 4.66503C34.0722 4.32603 32.8711 4 31.3773 4C27.544 4 24.8455 6.03842 24.8227 8.95678C24.7987 11.1151 26.7488 12.3189 28.2188 13.0368C29.7293 13.7718 30.2372 14.2425 30.2306 14.8997C30.2208 15.9062 29.0251 16.3495 27.9102 16.3673Z" fill="#394B4E"/>
<path d="M41.5578 4.2744C40.8139 4.2744 40.1861 4.70739 39.9068 5.37438L34.088 19.2676H38.1604L38.9694 17.0285H43.9453L44.4125 19.2676H48.0001L44.8695 4.2744H41.5578V4.2744ZM40.085 13.9554L42.1271 8.32529L43.3023 13.9554H40.085Z" fill="#394B4E"/>
<path d="M16.6812 19.2676H20.5595L23.7672 4.2744H19.8891L16.6812 19.2676Z" fill="#394B4E"/>
</svg>
