<svg width="327" height="320" viewBox="0 0 327 320" fill="none" xmlns="http://www.w3.org/2000/svg">
    <rect width="327" height="320" rx="12" fill="#9CA5B0" fill-opacity="0.1"/>
    <rect x="21.5" y="221" width="284" height="82.4923" rx="6" fill="white"/>
    <path d="M42.2796 237.508C42.2199 236.95 41.9685 236.515 41.5253 236.204C41.0864 235.893 40.5154 235.737 39.8122 235.737C39.3179 235.737 38.8939 235.812 38.5402 235.961C38.1865 236.11 37.9159 236.312 37.7284 236.568C37.5409 236.824 37.445 237.116 37.4408 237.444C37.4408 237.717 37.5026 237.953 37.6262 238.153C37.754 238.354 37.9266 238.524 38.1439 238.665C38.3612 238.801 38.602 238.916 38.8662 239.01C39.1304 239.104 39.3968 239.183 39.6652 239.246L40.8925 239.553C41.3868 239.668 41.8619 239.824 42.3179 240.02C42.7781 240.216 43.1894 240.463 43.5516 240.761C43.9181 241.06 44.2078 241.42 44.4209 241.842C44.634 242.263 44.7405 242.758 44.7405 243.325C44.7405 244.092 44.5445 244.767 44.1524 245.351C43.7604 245.93 43.1936 246.384 42.4521 246.712C41.7149 247.036 40.8222 247.198 39.7739 247.198C38.7554 247.198 37.8712 247.04 37.1212 246.725C36.3754 246.41 35.7916 245.95 35.3698 245.344C34.9521 244.739 34.7263 244.002 34.6922 243.133H37.0253C37.0594 243.589 37.2 243.968 37.4472 244.271C37.6943 244.573 38.0161 244.799 38.4124 244.948C38.8129 245.097 39.2604 245.172 39.7547 245.172C40.2703 245.172 40.722 245.095 41.1098 244.942C41.5019 244.784 41.8087 244.567 42.0303 244.29C42.2519 244.009 42.3648 243.68 42.3691 243.305C42.3648 242.964 42.2646 242.683 42.0686 242.462C41.8726 242.236 41.5977 242.048 41.2441 241.899C40.8946 241.746 40.4855 241.609 40.0168 241.49L38.5274 241.107C37.4493 240.83 36.597 240.41 35.9706 239.847C35.3485 239.281 35.0374 238.528 35.0374 237.591C35.0374 236.82 35.2462 236.144 35.6638 235.565C36.0857 234.985 36.6588 234.536 37.3833 234.216C38.1077 233.892 38.928 233.73 39.8442 233.73C40.7732 233.73 41.5871 233.892 42.286 234.216C42.9891 234.536 43.5409 234.981 43.9415 235.552C44.3421 236.119 44.5487 236.771 44.5615 237.508H42.2796ZM57.6125 233.909V247H55.5031L49.3348 238.083H49.2261V247H46.8547V233.909H48.9768L55.1388 242.832H55.2538V233.909H57.6125ZM61.5196 245.428C61.1318 245.428 60.7994 245.291 60.5225 245.018C60.2455 244.741 60.1091 244.409 60.1134 244.021C60.1091 243.638 60.2455 243.31 60.5225 243.037C60.7994 242.764 61.1318 242.628 61.5196 242.628C61.8946 242.628 62.2206 242.764 62.4976 243.037C62.7789 243.31 62.9216 243.638 62.9259 244.021C62.9216 244.281 62.8534 244.518 62.7213 244.731C62.5935 244.944 62.423 245.114 62.21 245.242C62.0012 245.366 61.771 245.428 61.5196 245.428ZM61.5196 238.94C61.1318 238.94 60.7994 238.803 60.5225 238.531C60.2455 238.254 60.1091 237.921 60.1134 237.533C60.1091 237.15 60.2455 236.822 60.5225 236.549C60.7994 236.272 61.1318 236.134 61.5196 236.134C61.8946 236.134 62.2206 236.272 62.4976 236.549C62.7789 236.822 62.9216 237.15 62.9259 237.533C62.9216 237.789 62.8534 238.023 62.7213 238.237C62.5935 238.45 62.423 238.62 62.21 238.748C62.0012 238.876 61.771 238.94 61.5196 238.94Z" fill="#9CA5B0"/>
    <path d="M89.1335 235.318V245.5H87.9006V236.611H87.8409L85.3551 238.261V237.009L87.9006 235.318H89.1335ZM94.3018 245.5V244.605L97.6626 240.926C98.057 240.495 98.3818 240.121 98.637 239.803C98.8922 239.481 99.0811 239.179 99.2038 238.898C99.3297 238.613 99.3927 238.314 99.3927 238.003C99.3927 237.645 99.3065 237.335 99.1342 237.073C98.9651 236.811 98.7331 236.609 98.4382 236.467C98.1432 236.324 97.8117 236.253 97.4438 236.253C97.0527 236.253 96.7114 236.334 96.4197 236.496C96.1313 236.656 95.9076 236.879 95.7485 237.168C95.5927 237.456 95.5149 237.794 95.5149 238.182H94.3416C94.3416 237.585 94.4791 237.062 94.7542 236.611C95.0293 236.16 95.4038 235.809 95.8778 235.557C96.3551 235.305 96.8903 235.179 97.4836 235.179C98.0802 235.179 98.6088 235.305 99.0695 235.557C99.5302 235.809 99.8915 236.148 100.153 236.576C100.415 237.004 100.546 237.479 100.546 238.003C100.546 238.377 100.478 238.744 100.342 239.102C100.21 239.456 99.9777 239.852 99.6462 240.29C99.3181 240.724 98.8624 241.254 98.2791 241.881L95.9921 244.327V244.406H100.725V245.5H94.3018ZM108.459 245.639C107.802 245.639 107.217 245.527 106.704 245.301C106.193 245.076 105.787 244.763 105.486 244.362C105.187 243.957 105.025 243.488 104.998 242.955H106.251C106.278 243.283 106.391 243.566 106.589 243.805C106.788 244.04 107.048 244.222 107.37 244.352C107.691 244.481 108.048 244.545 108.439 244.545C108.876 244.545 109.264 244.469 109.602 244.317C109.94 244.164 110.205 243.952 110.398 243.68C110.59 243.409 110.686 243.094 110.686 242.736C110.686 242.361 110.593 242.031 110.408 241.746C110.222 241.458 109.95 241.233 109.592 241.07C109.234 240.908 108.797 240.827 108.28 240.827H107.464V239.733H108.28C108.684 239.733 109.039 239.66 109.344 239.514C109.652 239.368 109.892 239.163 110.065 238.898C110.24 238.633 110.328 238.321 110.328 237.963C110.328 237.618 110.252 237.318 110.099 237.063C109.947 236.808 109.731 236.609 109.453 236.467C109.178 236.324 108.853 236.253 108.479 236.253C108.127 236.253 107.796 236.317 107.484 236.447C107.176 236.573 106.924 236.757 106.729 236.999C106.533 237.237 106.427 237.526 106.41 237.864H105.217C105.237 237.33 105.398 236.863 105.699 236.462C106.001 236.057 106.395 235.742 106.883 235.517C107.373 235.292 107.912 235.179 108.498 235.179C109.128 235.179 109.668 235.307 110.119 235.562C110.57 235.814 110.916 236.147 111.158 236.561C111.4 236.975 111.521 237.423 111.521 237.903C111.521 238.477 111.37 238.966 111.069 239.37C110.77 239.774 110.364 240.054 109.851 240.21V240.29C110.494 240.396 110.996 240.669 111.357 241.11C111.718 241.548 111.899 242.089 111.899 242.736C111.899 243.289 111.748 243.786 111.447 244.227C111.148 244.665 110.741 245.009 110.224 245.261C109.707 245.513 109.118 245.639 108.459 245.639ZM115.934 243.412V242.398L120.408 235.318H121.144V236.889H120.647L117.266 242.239V242.318H123.292V243.412H115.934ZM120.726 245.5V243.104V242.631V235.318H121.9V245.5H120.726ZM130.577 245.639C129.993 245.639 129.468 245.523 129.001 245.291C128.533 245.059 128.159 244.741 127.877 244.337C127.595 243.932 127.441 243.472 127.415 242.955H128.608C128.654 243.415 128.863 243.796 129.234 244.098C129.609 244.396 130.056 244.545 130.577 244.545C130.994 244.545 131.365 244.448 131.69 244.252C132.018 244.057 132.275 243.788 132.461 243.447C132.65 243.102 132.744 242.713 132.744 242.278C132.744 241.834 132.646 241.438 132.451 241.09C132.259 240.739 131.994 240.462 131.655 240.26C131.317 240.058 130.931 239.955 130.497 239.952C130.186 239.948 129.866 239.996 129.538 240.096C129.209 240.192 128.939 240.316 128.727 240.469L127.574 240.33L128.19 235.318H133.48V236.412H129.224L128.866 239.415H128.926C129.135 239.249 129.397 239.112 129.712 239.002C130.026 238.893 130.355 238.838 130.696 238.838C131.319 238.838 131.874 238.987 132.361 239.286C132.852 239.58 133.236 239.985 133.515 240.499C133.797 241.012 133.937 241.599 133.937 242.259C133.937 242.908 133.792 243.488 133.5 243.999C133.212 244.506 132.814 244.907 132.307 245.202C131.8 245.493 131.223 245.639 130.577 245.639ZM141.533 245.639C141.115 245.633 140.698 245.553 140.28 245.401C139.863 245.248 139.481 244.991 139.137 244.63C138.792 244.265 138.515 243.773 138.307 243.153C138.098 242.53 137.993 241.748 137.993 240.807C137.993 239.905 138.078 239.107 138.247 238.411C138.416 237.711 138.661 237.123 138.983 236.646C139.304 236.165 139.692 235.8 140.146 235.552C140.603 235.303 141.119 235.179 141.692 235.179C142.262 235.179 142.769 235.293 143.213 235.522C143.661 235.747 144.026 236.062 144.307 236.467C144.589 236.871 144.771 237.337 144.854 237.864H143.641C143.528 237.406 143.31 237.027 142.985 236.725C142.66 236.424 142.229 236.273 141.692 236.273C140.903 236.273 140.282 236.616 139.828 237.302C139.377 237.988 139.15 238.951 139.147 240.19H139.226C139.412 239.909 139.632 239.668 139.888 239.469C140.146 239.267 140.431 239.112 140.743 239.002C141.054 238.893 141.384 238.838 141.732 238.838C142.315 238.838 142.849 238.984 143.333 239.276C143.817 239.564 144.204 239.963 144.496 240.474C144.788 240.981 144.934 241.562 144.934 242.219C144.934 242.848 144.793 243.425 144.511 243.949C144.229 244.469 143.833 244.884 143.323 245.192C142.816 245.497 142.219 245.646 141.533 245.639ZM141.533 244.545C141.951 244.545 142.325 244.441 142.657 244.232C142.991 244.023 143.255 243.743 143.447 243.392C143.643 243.041 143.74 242.65 143.74 242.219C143.74 241.798 143.646 241.415 143.457 241.07C143.271 240.722 143.015 240.446 142.687 240.24C142.362 240.035 141.99 239.932 141.573 239.932C141.258 239.932 140.965 239.995 140.693 240.121C140.421 240.243 140.182 240.412 139.977 240.628C139.775 240.843 139.616 241.09 139.5 241.369C139.384 241.644 139.326 241.934 139.326 242.239C139.326 242.643 139.42 243.021 139.609 243.372C139.801 243.723 140.063 244.007 140.395 244.222C140.729 244.438 141.109 244.545 141.533 244.545ZM149.447 245.5L154.001 236.491V236.412H148.751V235.318H155.274V236.472L150.74 245.5H149.447ZM162.423 245.639C161.74 245.639 161.137 245.518 160.613 245.276C160.093 245.031 159.687 244.695 159.395 244.267C159.104 243.836 158.96 243.346 158.963 242.795C158.96 242.365 159.044 241.967 159.216 241.602C159.389 241.234 159.624 240.928 159.922 240.683C160.224 240.434 160.56 240.277 160.932 240.21V240.151C160.444 240.025 160.057 239.751 159.768 239.33C159.48 238.906 159.337 238.424 159.341 237.884C159.337 237.366 159.468 236.904 159.733 236.496C159.999 236.089 160.363 235.767 160.827 235.532C161.295 235.297 161.826 235.179 162.423 235.179C163.013 235.179 163.54 235.297 164.004 235.532C164.468 235.767 164.833 236.089 165.098 236.496C165.366 236.904 165.502 237.366 165.505 237.884C165.502 238.424 165.355 238.906 165.063 239.33C164.775 239.751 164.392 240.025 163.915 240.151V240.21C164.282 240.277 164.614 240.434 164.909 240.683C165.204 240.928 165.439 241.234 165.615 241.602C165.791 241.967 165.88 242.365 165.883 242.795C165.88 243.346 165.731 243.836 165.436 244.267C165.144 244.695 164.738 245.031 164.218 245.276C163.701 245.518 163.103 245.639 162.423 245.639ZM162.423 244.545C162.884 244.545 163.282 244.471 163.616 244.322C163.951 244.173 164.21 243.962 164.392 243.69C164.574 243.419 164.667 243.1 164.67 242.736C164.667 242.351 164.567 242.012 164.372 241.717C164.176 241.422 163.91 241.19 163.572 241.021C163.237 240.852 162.854 240.767 162.423 240.767C161.989 240.767 161.601 240.852 161.26 241.021C160.922 241.19 160.655 241.422 160.459 241.717C160.267 242.012 160.173 242.351 160.176 242.736C160.173 243.1 160.26 243.419 160.439 243.69C160.622 243.962 160.882 244.173 161.22 244.322C161.558 244.471 161.959 244.545 162.423 244.545ZM162.423 239.713C162.788 239.713 163.111 239.64 163.393 239.494C163.678 239.348 163.901 239.145 164.064 238.883C164.226 238.621 164.309 238.314 164.312 237.963C164.309 237.618 164.228 237.318 164.069 237.063C163.91 236.805 163.689 236.606 163.407 236.467C163.126 236.324 162.798 236.253 162.423 236.253C162.042 236.253 161.709 236.324 161.424 236.467C161.139 236.606 160.918 236.805 160.763 237.063C160.607 237.318 160.531 237.618 160.534 237.963C160.531 238.314 160.608 238.621 160.768 238.883C160.93 239.145 161.154 239.348 161.439 239.494C161.724 239.64 162.052 239.713 162.423 239.713ZM173.27 235.179C173.688 235.182 174.105 235.262 174.523 235.418C174.941 235.573 175.322 235.832 175.666 236.193C176.011 236.551 176.288 237.04 176.497 237.66C176.706 238.28 176.81 239.057 176.81 239.991C176.81 240.896 176.724 241.7 176.551 242.403C176.382 243.102 176.137 243.692 175.816 244.173C175.497 244.653 175.11 245.018 174.652 245.266C174.198 245.515 173.684 245.639 173.111 245.639C172.541 245.639 172.032 245.527 171.585 245.301C171.141 245.072 170.776 244.756 170.491 244.352C170.209 243.944 170.029 243.472 169.949 242.935H171.162C171.272 243.402 171.489 243.788 171.813 244.093C172.142 244.395 172.574 244.545 173.111 244.545C173.897 244.545 174.516 244.202 174.97 243.516C175.428 242.83 175.657 241.861 175.657 240.608H175.577C175.391 240.886 175.171 241.127 174.916 241.329C174.661 241.531 174.377 241.687 174.066 241.796C173.754 241.906 173.423 241.96 173.071 241.96C172.488 241.96 171.953 241.816 171.465 241.528C170.982 241.236 170.594 240.837 170.302 240.33C170.014 239.819 169.87 239.236 169.87 238.58C169.87 237.956 170.009 237.386 170.287 236.869C170.569 236.349 170.963 235.935 171.47 235.626C171.981 235.318 172.581 235.169 173.27 235.179ZM173.27 236.273C172.853 236.273 172.476 236.377 172.142 236.586C171.81 236.791 171.547 237.07 171.351 237.421C171.159 237.769 171.063 238.155 171.063 238.58C171.063 239.004 171.156 239.39 171.341 239.738C171.53 240.083 171.787 240.358 172.112 240.563C172.44 240.765 172.813 240.866 173.23 240.866C173.545 240.866 173.839 240.805 174.11 240.683C174.382 240.557 174.619 240.386 174.821 240.17C175.027 239.952 175.188 239.705 175.304 239.43C175.42 239.151 175.478 238.861 175.478 238.56C175.478 238.162 175.381 237.789 175.189 237.441C175 237.093 174.738 236.811 174.404 236.596C174.072 236.38 173.694 236.273 173.27 236.273ZM184.585 235.318V245.5H183.352V236.611H183.292L180.806 238.261V237.009L183.352 235.318H184.585ZM193.074 245.639C192.325 245.639 191.687 245.435 191.16 245.028C190.633 244.617 190.23 244.022 189.952 243.243C189.673 242.461 189.534 241.516 189.534 240.409C189.534 239.309 189.673 238.369 189.952 237.59C190.233 236.808 190.638 236.211 191.165 235.8C191.695 235.386 192.331 235.179 193.074 235.179C193.816 235.179 194.451 235.386 194.978 235.8C195.508 236.211 195.913 236.808 196.191 237.59C196.473 238.369 196.614 239.309 196.614 240.409C196.614 241.516 196.474 242.461 196.196 243.243C195.918 244.022 195.515 244.617 194.988 245.028C194.461 245.435 193.823 245.639 193.074 245.639ZM193.074 244.545C193.816 244.545 194.393 244.187 194.804 243.472C195.215 242.756 195.42 241.735 195.42 240.409C195.42 239.527 195.326 238.777 195.137 238.157C194.951 237.537 194.683 237.065 194.332 236.74C193.984 236.415 193.564 236.253 193.074 236.253C192.338 236.253 191.763 236.616 191.349 237.342C190.934 238.064 190.727 239.087 190.727 240.409C190.727 241.291 190.82 242.04 191.006 242.656C191.191 243.273 191.458 243.742 191.806 244.063C192.157 244.385 192.58 244.545 193.074 244.545ZM204.322 235.318V245.5H203.089V236.611H203.03L200.544 238.261V237.009L203.089 235.318H204.322ZM213.07 235.318V245.5H211.837V236.611H211.778L209.292 238.261V237.009L211.837 235.318H213.07ZM221.818 235.318V245.5H220.585V236.611H220.525L218.04 238.261V237.009L220.585 235.318H221.818ZM226.986 245.5V244.605L230.347 240.926C230.741 240.495 231.066 240.121 231.321 239.803C231.577 239.481 231.766 239.179 231.888 238.898C232.014 238.613 232.077 238.314 232.077 238.003C232.077 237.645 231.991 237.335 231.819 237.073C231.65 236.811 231.418 236.609 231.123 236.467C230.828 236.324 230.496 236.253 230.128 236.253C229.737 236.253 229.396 236.334 229.104 236.496C228.816 236.656 228.592 236.879 228.433 237.168C228.277 237.456 228.199 237.794 228.199 238.182H227.026C227.026 237.585 227.164 237.062 227.439 236.611C227.714 236.16 228.088 235.809 228.562 235.557C229.04 235.305 229.575 235.179 230.168 235.179C230.765 235.179 231.293 235.305 231.754 235.557C232.215 235.809 232.576 236.148 232.838 236.576C233.1 237.004 233.231 237.479 233.231 238.003C233.231 238.377 233.163 238.744 233.027 239.102C232.894 239.456 232.662 239.852 232.331 240.29C232.003 240.724 231.547 241.254 230.964 241.881L228.677 244.327V244.406H233.41V245.5H226.986ZM241.282 235.318V245.5H240.049V236.611H239.99L237.504 238.261V237.009L240.049 235.318H241.282ZM249.891 245.639C249.235 245.639 248.65 245.527 248.136 245.301C247.626 245.076 247.22 244.763 246.918 244.362C246.62 243.957 246.457 243.488 246.431 242.955H247.684C247.71 243.283 247.823 243.566 248.022 243.805C248.221 244.04 248.481 244.222 248.802 244.352C249.124 244.481 249.48 244.545 249.871 244.545C250.309 244.545 250.696 244.469 251.034 244.317C251.372 244.164 251.638 243.952 251.83 243.68C252.022 243.409 252.118 243.094 252.118 242.736C252.118 242.361 252.025 242.031 251.84 241.746C251.654 241.458 251.382 241.233 251.024 241.07C250.667 240.908 250.229 240.827 249.712 240.827H248.897V239.733H249.712C250.116 239.733 250.471 239.66 250.776 239.514C251.084 239.368 251.324 239.163 251.497 238.898C251.672 238.633 251.76 238.321 251.76 237.963C251.76 237.618 251.684 237.318 251.532 237.063C251.379 236.808 251.164 236.609 250.885 236.467C250.61 236.324 250.285 236.253 249.911 236.253C249.56 236.253 249.228 236.317 248.917 236.447C248.608 236.573 248.356 236.757 248.161 236.999C247.965 237.237 247.859 237.526 247.843 237.864H246.649C246.669 237.33 246.83 236.863 247.132 236.462C247.433 236.057 247.828 235.742 248.315 235.517C248.805 235.292 249.344 235.179 249.931 235.179C250.56 235.179 251.101 235.307 251.551 235.562C252.002 235.814 252.349 236.147 252.591 236.561C252.832 236.975 252.953 237.423 252.953 237.903C252.953 238.477 252.803 238.966 252.501 239.37C252.203 239.774 251.797 240.054 251.283 240.21V240.29C251.926 240.396 252.428 240.669 252.789 241.11C253.151 241.548 253.331 242.089 253.331 242.736C253.331 243.289 253.18 243.786 252.879 244.227C252.581 244.665 252.173 245.009 251.656 245.261C251.139 245.513 250.551 245.639 249.891 245.639ZM261.184 235.318V245.5H259.951V236.611H259.892L257.406 238.261V237.009L259.951 235.318H261.184ZM266.114 243.412V242.398L270.588 235.318H271.324V236.889H270.827L267.446 242.239V242.318H273.472V243.412H266.114ZM270.906 245.5V243.104V242.631V235.318H272.08V245.5H270.906ZM287.073 245.639C286.324 245.639 285.686 245.435 285.159 245.028C284.632 244.617 284.23 244.022 283.951 243.243C283.673 242.461 283.534 241.516 283.534 240.409C283.534 239.309 283.673 238.369 283.951 237.59C284.233 236.808 284.637 236.211 285.164 235.8C285.695 235.386 286.331 235.179 287.073 235.179C287.816 235.179 288.451 235.386 288.978 235.8C289.508 236.211 289.912 236.808 290.191 237.59C290.472 238.369 290.613 239.309 290.613 240.409C290.613 241.516 290.474 242.461 290.196 243.243C289.917 244.022 289.514 244.617 288.988 245.028C288.461 245.435 287.822 245.639 287.073 245.639ZM287.073 244.545C287.816 244.545 288.393 244.187 288.804 243.472C289.215 242.756 289.42 241.735 289.42 240.409C289.42 239.527 289.326 238.777 289.137 238.157C288.951 237.537 288.683 237.065 288.331 236.74C287.983 236.415 287.564 236.253 287.073 236.253C286.338 236.253 285.763 236.616 285.348 237.342C284.934 238.064 284.727 239.087 284.727 240.409C284.727 241.291 284.82 242.04 285.005 242.656C285.191 243.273 285.458 243.742 285.806 244.063C286.157 244.385 286.58 244.545 287.073 244.545Z" fill="#9CA5B0"/>
    <line x1="32.3793" y1="293.492" x2="32.3793" y2="257" stroke="#E5E7EB" stroke-width="2.24138"/>
    <line x1="37.7026" y1="293.492" x2="37.7026" y2="257" stroke="#E5E7EB" stroke-width="0.560345"/>
    <line x1="41.625" y1="293.492" x2="41.625" y2="257" stroke="#E5E7EB" stroke-width="1.68103"/>
    <line x1="44.1466" y1="293.492" x2="44.1466" y2="257" stroke="#E5E7EB" stroke-width="5.60345"/>
    <line x1="50.0302" y1="293.492" x2="50.0302" y2="257" stroke="#E5E7EB" stroke-width="2.80172"/>
    <line x1="54.513" y1="293.492" x2="54.513" y2="257" stroke="#E5E7EB" stroke-width="2.80172"/>
    <line x1="58.9957" y1="293.492" x2="58.9957" y2="257" stroke="#E5E7EB" stroke-width="2.80172"/>
    <line x1="64.5992" y1="293.492" x2="64.5992" y2="257" stroke="#E5E7EB" stroke-width="0.560345"/>
    <line x1="68.5215" y1="293.492" x2="68.5215" y2="257" stroke="#E5E7EB" stroke-width="1.68103"/>
    <line x1="73.2845" y1="293.492" x2="73.2845" y2="257" stroke="#E5E7EB" stroke-width="1.12069"/>
    <line x1="77.7672" y1="293.492" x2="77.7672" y2="257" stroke="#E5E7EB" stroke-width="1.12069"/>
    <line x1="81.6897" y1="293.492" x2="81.6897" y2="257" stroke="#E5E7EB" stroke-width="2.24138"/>
    <line x1="85.6121" y1="293.492" x2="85.6121" y2="257" stroke="#E5E7EB" stroke-width="3.36207"/>
    <line x1="90.9354" y1="293.492" x2="90.9354" y2="257" stroke="#E5E7EB" stroke-width="1.68103"/>
    <line x1="95.6983" y1="293.492" x2="95.6983" y2="257" stroke="#E5E7EB" stroke-width="1.12069"/>
    <line x1="100.461" y1="293.492" x2="100.461" y2="257" stroke="#E5E7EB" stroke-width="0.560345"/>
    <line x1="104.384" y1="293.492" x2="104.384" y2="257" stroke="#E5E7EB" stroke-width="1.68103"/>
    <line x1="108.866" y1="293.492" x2="108.866" y2="257" stroke="#E5E7EB" stroke-width="1.68103"/>
    <line x1="112.789" y1="293.492" x2="112.789" y2="257" stroke="#E5E7EB" stroke-width="2.80172"/>
    <line x1="118.112" y1="293.492" x2="118.112" y2="257" stroke="#E5E7EB" stroke-width="1.12069"/>
    <line x1="122.595" y1="293.492" x2="122.595" y2="257" stroke="#E5E7EB" stroke-width="1.12069"/>
    <line x1="125.957" y1="293.492" x2="125.957" y2="257" stroke="#E5E7EB" stroke-width="3.36207"/>
    <line x1="131.56" y1="293.492" x2="131.56" y2="257" stroke="#E5E7EB" stroke-width="1.12069"/>
    <line x1="134.922" y1="293.492" x2="134.922" y2="257" stroke="#E5E7EB" stroke-width="3.36207"/>
    <line x1="139.965" y1="293.492" x2="139.965" y2="257" stroke="#E5E7EB" stroke-width="2.24138"/>
    <line x1="145.009" y1="293.492" x2="145.009" y2="257" stroke="#E5E7EB" stroke-width="1.12069"/>
    <line x1="148.371" y1="293.492" x2="148.371" y2="257" stroke="#E5E7EB" stroke-width="3.36207"/>
    <line x1="154.254" y1="293.492" x2="154.254" y2="257" stroke="#E5E7EB" stroke-width="0.560345"/>
    <line x1="158.737" y1="293.492" x2="158.737" y2="257" stroke="#E5E7EB" stroke-width="0.560345"/>
    <line x1="163.22" y1="293.492" x2="163.22" y2="257" stroke="#E5E7EB" stroke-width="0.560345"/>
    <line x1="166.862" y1="293.492" x2="166.862" y2="257" stroke="#E5E7EB" stroke-width="2.24138"/>
    <line x1="171.905" y1="293.492" x2="171.905" y2="257" stroke="#E5E7EB" stroke-width="1.12069"/>
    <line x1="176.108" y1="293.492" x2="176.108" y2="257" stroke="#E5E7EB" stroke-width="1.68103"/>
    <line x1="180.591" y1="293.492" x2="180.591" y2="257" stroke="#E5E7EB" stroke-width="1.68103"/>
    <line x1="185.634" y1="293.492" x2="185.634" y2="257" stroke="#E5E7EB" stroke-width="0.560345"/>
    <line x1="190.116" y1="293.492" x2="190.116" y2="257" stroke="#E5E7EB" stroke-width="0.560345"/>
    <line x1="193.198" y1="293.492" x2="193.198" y2="257" stroke="#E5E7EB" stroke-width="3.36207"/>
    <line x1="198.802" y1="293.492" x2="198.802" y2="257" stroke="#E5E7EB" stroke-width="1.12069"/>
    <line x1="202.164" y1="293.492" x2="202.164" y2="257" stroke="#E5E7EB" stroke-width="3.36207"/>
    <line x1="207.207" y1="293.492" x2="207.207" y2="257" stroke="#E5E7EB" stroke-width="2.24138"/>
    <line x1="212.25" y1="293.492" x2="212.25" y2="257" stroke="#E5E7EB" stroke-width="1.12069"/>
    <line x1="216.172" y1="293.492" x2="216.172" y2="257" stroke="#E5E7EB" stroke-width="2.24138"/>
    <line x1="220.655" y1="293.492" x2="220.655" y2="257" stroke="#E5E7EB" stroke-width="2.24138"/>
    <line x1="224.578" y1="293.492" x2="224.578" y2="257" stroke="#E5E7EB" stroke-width="3.36207"/>
    <line x1="230.181" y1="293.492" x2="230.181" y2="257" stroke="#E5E7EB" stroke-width="1.12069"/>
    <line x1="234.664" y1="293.492" x2="234.664" y2="257" stroke="#E5E7EB" stroke-width="1.12069"/>
    <line x1="238.586" y1="293.492" x2="238.586" y2="257" stroke="#E5E7EB" stroke-width="2.24138"/>
    <line x1="243.909" y1="293.492" x2="243.909" y2="257" stroke="#E5E7EB" stroke-width="0.560345"/>
    <line x1="246.991" y1="293.492" x2="246.991" y2="257" stroke="#E5E7EB" stroke-width="3.36207"/>
    <line x1="251.754" y1="293.492" x2="251.754" y2="257" stroke="#E5E7EB" stroke-width="2.80172"/>
    <line x1="257.078" y1="293.492" x2="257.078" y2="257" stroke="#E5E7EB" stroke-width="1.12069"/>
    <line x1="260.72" y1="293.492" x2="260.72" y2="257" stroke="#E5E7EB" stroke-width="2.80172"/>
    <line x1="266.323" y1="293.492" x2="266.323" y2="257" stroke="#E5E7EB" stroke-width="0.560345"/>
    <line x1="270.526" y1="293.492" x2="270.526" y2="257" stroke="#E5E7EB" stroke-width="1.12069"/>
    <line x1="275.009" y1="293.492" x2="275.009" y2="257" stroke="#E5E7EB" stroke-width="1.12069"/>
    <line x1="279.491" y1="293.492" x2="279.491" y2="257" stroke="#E5E7EB" stroke-width="1.12069"/>
    <line x1="282.853" y1="293.492" x2="282.853" y2="257" stroke="#E5E7EB" stroke-width="3.36207"/>
    <line x1="288.177" y1="293.492" x2="288.177" y2="257" stroke="#E5E7EB" stroke-width="1.68103"/>
    <line x1="292.099" y1="293.492" x2="292.099" y2="257" stroke="#E5E7EB" stroke-width="2.80172"/>
    <path d="M139.157 62.2485H288.119C294.481 62.2485 299.638 67.406 299.638 73.7679V160.729C299.638 167.091 294.481 172.249 288.119 172.249H167.877C164.943 172.249 162.12 171.129 159.984 169.119L131.264 142.101C128.95 139.924 127.638 136.888 127.638 133.711V73.7679C127.638 67.406 132.795 62.2485 139.157 62.2485Z" stroke="#9CA5B0"/>
    <path d="M172.734 131.084V88.0664C172.734 83.8251 176.172 80.3868 180.413 80.3868H268.578C272.819 80.3868 276.258 83.8251 276.258 88.0664V147.355C276.258 151.597 272.819 155.035 268.578 155.035H192.316C189.867 155.035 187.565 153.867 186.118 151.89L174.215 135.619C173.253 134.303 172.734 132.715 172.734 131.084Z" stroke="#9CA5B0"/>
    <path d="M190.109 125.012V93.5551C190.109 89.8439 193.118 86.8354 196.829 86.8354H257.051C260.762 86.8354 263.77 89.8439 263.77 93.5551V136.606C263.77 140.317 260.762 143.326 257.051 143.326H204.804C202.592 143.326 200.521 142.237 199.267 140.414L191.292 128.82C190.522 127.7 190.109 126.372 190.109 125.012Z" stroke="#9CA5B0"/>
</svg>
